<svg width="102" height="654" viewBox="0 0 102 654" fill="none" xmlns="http://www.w3.org/2000/svg">
<line x1="71" y1="506" x2="86" y2="506" stroke="black"/>
<line x1="71" y1="523" x2="86" y2="523" stroke="black"/>
<line x1="71" y1="540" x2="86" y2="540" stroke="black"/>
<line x1="71" y1="557" x2="86" y2="557" stroke="black"/>
<line x1="71" y1="586" x2="86" y2="586" stroke="black"/>
<line x1="71" y1="603" x2="86" y2="603" stroke="black"/>
<line x1="71" y1="620" x2="86" y2="620" stroke="black"/>
<line x1="71" y1="637" x2="86" y2="637" stroke="black"/>
<line x1="48" y1="493" x2="88" y2="493" stroke="#43423D" stroke-width="2"/>
<line x1="87" y1="493" x2="87" y2="653" stroke="#43423D" stroke-width="2"/>
<line x1="63" y1="572" x2="88" y2="572" stroke="#43423D" stroke-width="2"/>
<path d="M21.0321 489.727V497H19.7147V491.009H19.6721L17.9711 492.096V490.888L19.7786 489.727H21.0321ZM25.0669 497.138C24.4822 497.138 23.9803 496.991 23.5613 496.695C23.1446 496.396 22.8238 495.967 22.5989 495.406C22.3764 494.842 22.2651 494.164 22.2651 493.371C22.2675 492.578 22.3799 491.903 22.6025 491.347C22.8274 490.788 23.1481 490.362 23.5648 490.068C23.9838 489.775 24.4846 489.628 25.0669 489.628C25.6493 489.628 26.15 489.775 26.5691 490.068C26.9881 490.362 27.3089 490.788 27.5314 491.347C27.7563 491.905 27.8688 492.58 27.8688 493.371C27.8688 494.166 27.7563 494.846 27.5314 495.409C27.3089 495.97 26.9881 496.399 26.5691 496.695C26.1524 496.991 25.6517 497.138 25.0669 497.138ZM25.0669 496.027C25.5215 496.027 25.8801 495.803 26.1429 495.356C26.4081 494.906 26.5407 494.244 26.5407 493.371C26.5407 492.793 26.4803 492.308 26.3596 491.915C26.2388 491.522 26.0684 491.226 25.8482 491.027C25.628 490.826 25.3676 490.725 25.0669 490.725C24.6148 490.725 24.2573 490.95 23.9945 491.4C23.7317 491.847 23.5991 492.504 23.5968 493.371C23.5944 493.951 23.6524 494.438 23.7708 494.834C23.8915 495.229 24.062 495.527 24.2821 495.729C24.5023 495.928 24.7639 496.027 25.0669 496.027ZM31.2369 497.138C30.6521 497.138 30.1502 496.991 29.7312 496.695C29.3145 496.396 28.9937 495.967 28.7688 495.406C28.5463 494.842 28.435 494.164 28.435 493.371C28.4374 492.578 28.5498 491.903 28.7724 491.347C28.9973 490.788 29.3181 490.362 29.7347 490.068C30.1538 489.775 30.6545 489.628 31.2369 489.628C31.8192 489.628 32.32 489.775 32.739 490.068C33.158 490.362 33.4788 490.788 33.7013 491.347C33.9263 491.905 34.0387 492.58 34.0387 493.371C34.0387 494.166 33.9263 494.846 33.7013 495.409C33.4788 495.97 33.158 496.399 32.739 496.695C32.3223 496.991 31.8216 497.138 31.2369 497.138ZM31.2369 496.027C31.6914 496.027 32.0501 495.803 32.3129 495.356C32.578 494.906 32.7106 494.244 32.7106 493.371C32.7106 492.793 32.6502 492.308 32.5295 491.915C32.4087 491.522 32.2383 491.226 32.0181 491.027C31.7979 490.826 31.5375 490.725 31.2369 490.725C30.7847 490.725 30.4272 490.95 30.1644 491.4C29.9016 491.847 29.7691 492.504 29.7667 493.371C29.7643 493.951 29.8223 494.438 29.9407 494.834C30.0614 495.229 30.2319 495.527 30.4521 495.729C30.6722 495.928 30.9338 496.027 31.2369 496.027Z" fill="black"/>
<line x1="48" y1="332" x2="88" y2="332" stroke="#43423D" stroke-width="2"/>
<line x1="87" y1="332" x2="87" y2="492" stroke="#43423D" stroke-width="2"/>
<line x1="63" y1="411" x2="88" y2="411" stroke="#43423D" stroke-width="2"/>
<path d="M17.3709 336V335.048L19.8958 332.573C20.1373 332.329 20.3385 332.113 20.4995 331.923C20.6605 331.734 20.7812 331.55 20.8617 331.373C20.9422 331.195 20.9824 331.006 20.9824 330.805C20.9824 330.575 20.9303 330.379 20.8262 330.215C20.722 330.049 20.5788 329.922 20.3965 329.832C20.2142 329.742 20.007 329.697 19.775 329.697C19.5359 329.697 19.3264 329.746 19.1465 329.846C18.9666 329.943 18.8269 330.081 18.7275 330.261C18.6304 330.441 18.5819 330.656 18.5819 330.904H17.3283C17.3283 330.442 17.4337 330.041 17.6444 329.7C17.8551 329.359 18.1451 329.095 18.5144 328.908C18.8861 328.721 19.3122 328.628 19.7928 328.628C20.2805 328.628 20.709 328.719 21.0783 328.901C21.4476 329.084 21.7341 329.333 21.9377 329.651C22.1436 329.968 22.2466 330.33 22.2466 330.737C22.2466 331.009 22.1945 331.277 22.0904 331.54C21.9862 331.803 21.8027 332.094 21.54 332.413C21.2795 332.733 20.9138 333.12 20.4426 333.575L19.1891 334.849V334.899H22.3567V336H17.3709ZM25.7701 336.138C25.1853 336.138 24.6834 335.991 24.2644 335.695C23.8477 335.396 23.5269 334.967 23.302 334.406C23.0795 333.842 22.9682 333.164 22.9682 332.371C22.9706 331.578 23.083 330.903 23.3056 330.347C23.5305 329.788 23.8513 329.362 24.2679 329.068C24.687 328.775 25.1877 328.628 25.7701 328.628C26.3525 328.628 26.8532 328.775 27.2722 329.068C27.6912 329.362 28.012 329.788 28.2346 330.347C28.4595 330.905 28.5719 331.58 28.5719 332.371C28.5719 333.166 28.4595 333.846 28.2346 334.409C28.012 334.97 27.6912 335.399 27.2722 335.695C26.8555 335.991 26.3548 336.138 25.7701 336.138ZM25.7701 335.027C26.2246 335.027 26.5833 334.803 26.8461 334.356C27.1112 333.906 27.2438 333.244 27.2438 332.371C27.2438 331.793 27.1834 331.308 27.0627 330.915C26.9419 330.522 26.7715 330.226 26.5513 330.027C26.3311 329.826 26.0707 329.725 25.7701 329.725C25.3179 329.725 24.9604 329.95 24.6976 330.4C24.4348 330.847 24.3023 331.504 24.2999 332.371C24.2975 332.951 24.3555 333.438 24.4739 333.834C24.5946 334.229 24.7651 334.527 24.9853 334.729C25.2054 334.928 25.467 335.027 25.7701 335.027ZM31.94 336.138C31.3552 336.138 30.8533 335.991 30.4343 335.695C30.0176 335.396 29.6969 334.967 29.4719 334.406C29.2494 333.842 29.1381 333.164 29.1381 332.371C29.1405 331.578 29.253 330.903 29.4755 330.347C29.7004 329.788 30.0212 329.362 30.4379 329.068C30.8569 328.775 31.3576 328.628 31.94 328.628C32.5224 328.628 33.0231 328.775 33.4421 329.068C33.8612 329.362 34.1819 329.788 34.4045 330.347C34.6294 330.905 34.7418 331.58 34.7418 332.371C34.7418 333.166 34.6294 333.846 34.4045 334.409C34.1819 334.97 33.8612 335.399 33.4421 335.695C33.0254 335.991 32.5247 336.138 31.94 336.138ZM31.94 335.027C32.3945 335.027 32.7532 334.803 33.016 334.356C33.2811 333.906 33.4137 333.244 33.4137 332.371C33.4137 331.793 33.3533 331.308 33.2326 330.915C33.1119 330.522 32.9414 330.226 32.7212 330.027C32.5011 329.826 32.2406 329.725 31.94 329.725C31.4878 329.725 31.1303 329.95 30.8675 330.4C30.6048 330.847 30.4722 331.504 30.4698 332.371C30.4674 332.951 30.5254 333.438 30.6438 333.834C30.7646 334.229 30.935 334.527 31.1552 334.729C31.3754 334.928 31.637 335.027 31.94 335.027Z" fill="black"/>
<line x1="48" y1="171" x2="88" y2="171" stroke="#43423D" stroke-width="2"/>
<line x1="87" y1="171" x2="87" y2="331" stroke="#43423D" stroke-width="2"/>
<line x1="63" y1="250" x2="88" y2="250" stroke="#43423D" stroke-width="2"/>
<path d="M19.8296 175.099C19.3183 175.099 18.8637 175.012 18.466 174.837C18.0706 174.661 17.7581 174.418 17.5285 174.105C17.2989 173.793 17.1769 173.432 17.1627 173.022H18.498C18.5098 173.219 18.5749 173.39 18.6933 173.537C18.8116 173.681 18.9691 173.794 19.1656 173.874C19.3621 173.955 19.5822 173.995 19.8261 173.995C20.0865 173.995 20.3173 173.95 20.5186 173.86C20.7198 173.768 20.8772 173.64 20.9909 173.477C21.1045 173.313 21.1601 173.125 21.1578 172.912C21.1601 172.692 21.1033 172.498 20.9873 172.33C20.8713 172.161 20.7032 172.03 20.483 171.935C20.2652 171.841 20.0025 171.793 19.6947 171.793H19.0519V170.778H19.6947C19.948 170.778 20.1694 170.734 20.3588 170.646C20.5505 170.559 20.7008 170.436 20.8097 170.277C20.9186 170.116 20.9719 169.93 20.9695 169.719C20.9719 169.513 20.9258 169.335 20.8311 169.183C20.7387 169.029 20.6073 168.91 20.4369 168.825C20.2688 168.739 20.0711 168.697 19.8438 168.697C19.6213 168.697 19.4153 168.737 19.2259 168.817C19.0365 168.898 18.8838 169.013 18.7678 169.162C18.6518 169.309 18.5903 169.484 18.5832 169.688H17.3154C17.3249 169.28 17.4421 168.923 17.667 168.615C17.8943 168.305 18.1973 168.063 18.5761 167.891C18.9549 167.715 19.3798 167.628 19.8509 167.628C20.3363 167.628 20.7577 167.719 21.1151 167.901C21.475 168.081 21.7532 168.324 21.9497 168.629C22.1462 168.935 22.2444 169.272 22.2444 169.641C22.2468 170.051 22.126 170.394 21.8822 170.671C21.6407 170.948 21.3235 171.129 20.9305 171.214V171.271C21.4419 171.342 21.8337 171.532 22.1059 171.839C22.3805 172.145 22.5167 172.525 22.5143 172.979C22.5143 173.387 22.3983 173.751 22.1663 174.073C21.9366 174.393 21.6194 174.644 21.2146 174.826C20.8121 175.008 20.3505 175.099 19.8296 175.099ZM25.9214 175.138C25.3367 175.138 24.8348 174.991 24.4157 174.695C23.9991 174.396 23.6783 173.967 23.4534 173.406C23.2309 172.842 23.1196 172.164 23.1196 171.371C23.122 170.578 23.2344 169.903 23.4569 169.347C23.6818 168.788 24.0026 168.362 24.4193 168.068C24.8383 167.775 25.339 167.628 25.9214 167.628C26.5038 167.628 27.0045 167.775 27.4236 168.068C27.8426 168.362 28.1634 168.788 28.3859 169.347C28.6108 169.905 28.7233 170.58 28.7233 171.371C28.7233 172.166 28.6108 172.846 28.3859 173.409C28.1634 173.97 27.8426 174.399 27.4236 174.695C27.0069 174.991 26.5062 175.138 25.9214 175.138ZM25.9214 174.027C26.376 174.027 26.7346 173.803 26.9974 173.356C27.2626 172.906 27.3952 172.244 27.3952 171.371C27.3952 170.793 27.3348 170.308 27.214 169.915C27.0933 169.522 26.9229 169.226 26.7027 169.027C26.4825 168.826 26.2221 168.725 25.9214 168.725C25.4693 168.725 25.1118 168.95 24.849 169.4C24.5862 169.847 24.4536 170.504 24.4513 171.371C24.4489 171.951 24.5069 172.438 24.6253 172.834C24.746 173.229 24.9165 173.527 25.1366 173.729C25.3568 173.928 25.6184 174.027 25.9214 174.027ZM32.0914 175.138C31.5066 175.138 31.0047 174.991 30.5857 174.695C30.169 174.396 29.8482 173.967 29.6233 173.406C29.4008 172.842 29.2895 172.164 29.2895 171.371C29.2919 170.578 29.4043 169.903 29.6269 169.347C29.8518 168.788 30.1726 168.362 30.5892 168.068C31.0083 167.775 31.509 167.628 32.0914 167.628C32.6737 167.628 33.1744 167.775 33.5935 168.068C34.0125 168.362 34.3333 168.788 34.5558 169.347C34.7807 169.905 34.8932 170.58 34.8932 171.371C34.8932 172.166 34.7807 172.846 34.5558 173.409C34.3333 173.97 34.0125 174.399 33.5935 174.695C33.1768 174.991 32.6761 175.138 32.0914 175.138ZM32.0914 174.027C32.5459 174.027 32.9046 173.803 33.1673 173.356C33.4325 172.906 33.5651 172.244 33.5651 171.371C33.5651 170.793 33.5047 170.308 33.384 169.915C33.2632 169.522 33.0928 169.226 32.8726 169.027C32.6524 168.826 32.392 168.725 32.0914 168.725C31.6392 168.725 31.2817 168.95 31.0189 169.4C30.7561 169.847 30.6236 170.504 30.6212 171.371C30.6188 171.951 30.6768 172.438 30.7952 172.834C30.9159 173.229 31.0864 173.527 31.3066 173.729C31.5267 173.928 31.7883 174.027 32.0914 174.027Z" fill="black"/>
<line x1="48" y1="10" x2="88" y2="10" stroke="#43423D" stroke-width="2"/>
<line x1="87" y1="10" x2="87" y2="170" stroke="#43423D" stroke-width="2"/>
<line x1="63" y1="89" x2="88" y2="89" stroke="#43423D" stroke-width="2"/>
<path d="M17.0149 12.6506V11.603L20.1009 6.72727H20.9744V8.21875H20.4418L18.3643 11.5107V11.5675H22.6719V12.6506H17.0149ZM20.4844 14V12.331L20.4986 11.8622V6.72727H21.7415V14H20.4844ZM25.9947 14.1385C25.4099 14.1385 24.908 13.9905 24.489 13.6946C24.0723 13.3963 23.7515 12.9666 23.5266 12.4055C23.3041 11.8421 23.1928 11.1638 23.1928 10.3707C23.1952 9.57765 23.3076 8.90294 23.5302 8.34659C23.7551 7.78788 24.0759 7.36174 24.4925 7.06818C24.9116 6.77462 25.4123 6.62784 25.9947 6.62784C26.5771 6.62784 27.0778 6.77462 27.4968 7.06818C27.9158 7.36174 28.2366 7.78788 28.4592 8.34659C28.6841 8.9053 28.7965 9.58002 28.7965 10.3707C28.7965 11.1662 28.6841 11.8456 28.4592 12.4091C28.2366 12.9702 27.9158 13.3987 27.4968 13.6946C27.0801 13.9905 26.5794 14.1385 25.9947 14.1385ZM25.9947 13.027C26.4492 13.027 26.8079 12.8033 27.0707 12.3558C27.3358 11.906 27.4684 11.2443 27.4684 10.3707C27.4684 9.79309 27.408 9.30777 27.2873 8.91477C27.1665 8.52178 26.9961 8.22585 26.7759 8.02699C26.5558 7.82576 26.2953 7.72514 25.9947 7.72514C25.5425 7.72514 25.185 7.95005 24.9222 8.39986C24.6594 8.8473 24.5269 9.50426 24.5245 10.3707C24.5221 10.9508 24.5801 11.4384 24.6985 11.8338C24.8192 12.2292 24.9897 12.5275 25.2099 12.7287C25.43 12.9276 25.6916 13.027 25.9947 13.027ZM32.1646 14.1385C31.5798 14.1385 31.0779 13.9905 30.6589 13.6946C30.2422 13.3963 29.9215 12.9666 29.6966 12.4055C29.474 11.8421 29.3627 11.1638 29.3627 10.3707C29.3651 9.57765 29.4776 8.90294 29.7001 8.34659C29.925 7.78788 30.2458 7.36174 30.6625 7.06818C31.0815 6.77462 31.5822 6.62784 32.1646 6.62784C32.747 6.62784 33.2477 6.77462 33.6667 7.06818C34.0858 7.36174 34.4065 7.78788 34.6291 8.34659C34.854 8.9053 34.9664 9.58002 34.9664 10.3707C34.9664 11.1662 34.854 11.8456 34.6291 12.4091C34.4065 12.9702 34.0858 13.3987 33.6667 13.6946C33.2501 13.9905 32.7493 14.1385 32.1646 14.1385ZM32.1646 13.027C32.6191 13.027 32.9778 12.8033 33.2406 12.3558C33.5057 11.906 33.6383 11.2443 33.6383 10.3707C33.6383 9.79309 33.5779 9.30777 33.4572 8.91477C33.3365 8.52178 33.166 8.22585 32.9458 8.02699C32.7257 7.82576 32.4653 7.72514 32.1646 7.72514C31.7124 7.72514 31.3549 7.95005 31.0922 8.39986C30.8294 8.8473 30.6968 9.50426 30.6944 10.3707C30.6921 10.9508 30.7501 11.4384 30.8684 11.8338C30.9892 12.2292 31.1596 12.5275 31.3798 12.7287C31.6 12.9276 31.8616 13.027 32.1646 13.027Z" fill="black"/>
</svg>
