<svg width="46" height="110" viewBox="0 0 46 110" fill="none" xmlns="http://www.w3.org/2000/svg">
<rect x="1" y="3" width="44" height="104" rx="4" fill="#ABABAB"/>
<path d="M8 2.5C8 1.67157 8.67157 1 9.5 1H36.5C37.3284 1 38 1.67157 38 2.5V4H8V2.5Z" fill="#ABABAB"/>
<path d="M41 107C41 108.105 40.1046 109 39 109L7 109C5.89543 109 5 108.105 5 107V107L41 107V107Z" fill="#ABABAB"/>
<rect x="3" y="5" width="40" height="100" rx="3" fill="#FFB906"/>
<path d="M10 5H40C41.6569 5 43 6.34315 43 8V9C43 9 32.5 11.5 27 15.5C24.7667 17.1242 20 23.5 17.5 24.5C16.4122 24.9351 14.5 25.25 13 24.5C11.1428 23.5714 9.74833 17.5596 9.03417 13.7218C8.63946 11.6007 8.79264 9.427 9.36032 7.34551L10 5Z" fill="white"/>
<path d="M3.78335 41.8H5.2564L7.01773 44.9852H7.08804L8.84937 41.8H10.3224L7.70327 46.3141V49H6.40249V46.3141L3.78335 41.8ZM10.7461 49V41.8H15.429V42.8934H12.0504V44.848H15.1864V45.9414H12.0504V47.9066H15.4571V49H10.7461ZM16.2596 49V41.8H17.5639V47.9066H20.735V49H16.2596ZM21.367 49V41.8H22.6713V47.9066H25.8424V49H21.367ZM32.6277 45.4C32.6277 46.1758 32.4824 46.8402 32.1917 47.3934C31.9035 47.9441 31.5097 48.366 31.0105 48.659C30.5136 48.952 29.95 49.0984 29.3195 49.0984C28.689 49.0984 28.1242 48.952 27.625 48.659C27.1281 48.3637 26.7343 47.9406 26.4437 47.3898C26.1554 46.8367 26.0113 46.1734 26.0113 45.4C26.0113 44.6242 26.1554 43.9609 26.4437 43.4102C26.7343 42.857 27.1281 42.434 27.625 42.141C28.1242 41.848 28.689 41.7016 29.3195 41.7016C29.95 41.7016 30.5136 41.848 31.0105 42.141C31.5097 42.434 31.9035 42.857 32.1917 43.4102C32.4824 43.9609 32.6277 44.6242 32.6277 45.4ZM31.3164 45.4C31.3164 44.8539 31.2308 44.3934 31.0597 44.0184C30.891 43.641 30.6566 43.3563 30.3566 43.1641C30.0566 42.9695 29.7109 42.8723 29.3195 42.8723C28.9281 42.8723 28.5824 42.9695 28.2824 43.1641C27.9824 43.3563 27.7468 43.641 27.5757 44.0184C27.407 44.3934 27.3226 44.8539 27.3226 45.4C27.3226 45.9461 27.407 46.4078 27.5757 46.7852C27.7468 47.1602 27.9824 47.4449 28.2824 47.6395C28.5824 47.8316 28.9281 47.9277 29.3195 47.9277C29.7109 47.9277 30.0566 47.8316 30.3566 47.6395C30.6566 47.4449 30.891 47.1602 31.0597 46.7852C31.2308 46.4078 31.3164 45.9461 31.3164 45.4ZM34.6923 49L32.6603 41.8H34.063L35.3603 47.091H35.4271L36.8123 41.8H38.0884L39.4771 47.0945H39.5404L40.8376 41.8H42.2404L40.2083 49H38.9216L37.4802 43.948H37.424L35.9791 49H34.6923Z" fill="#FFB906"/>
<path d="M3.78335 41.8V41.3H2.91517L3.35088 42.0509L3.78335 41.8ZM5.2564 41.8L5.69395 41.558L5.55126 41.3H5.2564V41.8ZM7.01773 44.9852L6.58017 45.2271L6.72286 45.4852H7.01773V44.9852ZM7.08804 44.9852V45.4852H7.3829L7.52559 45.2271L7.08804 44.9852ZM8.84937 41.8V41.3H8.5545L8.41181 41.558L8.84937 41.8ZM10.3224 41.8L10.7549 42.0509L11.1906 41.3H10.3224V41.8ZM7.70327 46.3141L7.2708 46.0631L7.20327 46.1795V46.3141H7.70327ZM7.70327 49V49.5H8.20327V49H7.70327ZM6.40249 49H5.90249V49.5H6.40249V49ZM6.40249 46.3141H6.90249V46.1795L6.83497 46.0631L6.40249 46.3141ZM3.78335 42.3H5.2564V41.3H3.78335V42.3ZM4.81884 42.042L6.58017 45.2271L7.45528 44.7432L5.69395 41.558L4.81884 42.042ZM7.01773 45.4852H7.08804V44.4852H7.01773V45.4852ZM7.52559 45.2271L9.28692 42.042L8.41181 41.558L6.65048 44.7432L7.52559 45.2271ZM8.84937 42.3H10.3224V41.3H8.84937V42.3ZM9.88994 41.5491L7.2708 46.0631L8.13575 46.565L10.7549 42.0509L9.88994 41.5491ZM7.20327 46.3141V49H8.20327V46.3141H7.20327ZM7.70327 48.5H6.40249V49.5H7.70327V48.5ZM6.90249 49V46.3141H5.90249V49H6.90249ZM6.83497 46.0631L4.21583 41.5491L3.35088 42.0509L5.97002 46.565L6.83497 46.0631ZM10.7461 49H10.2461V49.5H10.7461V49ZM10.7461 41.8V41.3H10.2461V41.8H10.7461ZM15.429 41.8H15.929V41.3H15.429V41.8ZM15.429 42.8934V43.3934H15.929V42.8934H15.429ZM12.0504 42.8934V42.3934H11.5504V42.8934H12.0504ZM12.0504 44.848H11.5504V45.348H12.0504V44.848ZM15.1864 44.848H15.6864V44.348H15.1864V44.848ZM15.1864 45.9414V46.4414H15.6864V45.9414H15.1864ZM12.0504 45.9414V45.4414H11.5504V45.9414H12.0504ZM12.0504 47.9066H11.5504V48.4066H12.0504V47.9066ZM15.4571 47.9066H15.9571V47.4066H15.4571V47.9066ZM15.4571 49V49.5H15.9571V49H15.4571ZM11.2461 49V41.8H10.2461V49H11.2461ZM10.7461 42.3H15.429V41.3H10.7461V42.3ZM14.929 41.8V42.8934H15.929V41.8H14.929ZM15.429 42.3934H12.0504V43.3934H15.429V42.3934ZM11.5504 42.8934V44.848H12.5504V42.8934H11.5504ZM12.0504 45.348H15.1864V44.348H12.0504V45.348ZM14.6864 44.848V45.9414H15.6864V44.848H14.6864ZM15.1864 45.4414H12.0504V46.4414H15.1864V45.4414ZM11.5504 45.9414V47.9066H12.5504V45.9414H11.5504ZM12.0504 48.4066H15.4571V47.4066H12.0504V48.4066ZM14.9571 47.9066V49H15.9571V47.9066H14.9571ZM15.4571 48.5H10.7461V49.5H15.4571V48.5ZM16.2596 49H15.7596V49.5H16.2596V49ZM16.2596 41.8V41.3H15.7596V41.8H16.2596ZM17.5639 41.8H18.0639V41.3H17.5639V41.8ZM17.5639 47.9066H17.0639V48.4066H17.5639V47.9066ZM20.735 47.9066H21.235V47.4066H20.735V47.9066ZM20.735 49V49.5H21.235V49H20.735ZM16.7596 49V41.8H15.7596V49H16.7596ZM16.2596 42.3H17.5639V41.3H16.2596V42.3ZM17.0639 41.8V47.9066H18.0639V41.8H17.0639ZM17.5639 48.4066H20.735V47.4066H17.5639V48.4066ZM20.235 47.9066V49H21.235V47.9066H20.235ZM20.735 48.5H16.2596V49.5H20.735V48.5ZM21.367 49H20.867V49.5H21.367V49ZM21.367 41.8V41.3H20.867V41.8H21.367ZM22.6713 41.8H23.1713V41.3H22.6713V41.8ZM22.6713 47.9066H22.1713V48.4066H22.6713V47.9066ZM25.8424 47.9066H26.3424V47.4066H25.8424V47.9066ZM25.8424 49V49.5H26.3424V49H25.8424ZM21.867 49V41.8H20.867V49H21.867ZM21.367 42.3H22.6713V41.3H21.367V42.3ZM22.1713 41.8V47.9066H23.1713V41.8H22.1713ZM22.6713 48.4066H25.8424V47.4066H22.6713V48.4066ZM25.3424 47.9066V49H26.3424V47.9066H25.3424ZM25.8424 48.5H21.367V49.5H25.8424V48.5ZM32.1917 47.3934L31.7491 47.1608L31.7488 47.1615L32.1917 47.3934ZM31.0105 48.659L30.7574 48.2278L30.7565 48.2283L31.0105 48.659ZM27.625 48.659L27.3695 49.0888L27.3719 49.0902L27.625 48.659ZM26.4437 47.3898L26.0003 47.6209L26.0015 47.6232L26.4437 47.3898ZM26.4437 43.4102L26.0011 43.1776L26.0007 43.1783L26.4437 43.4102ZM27.625 42.141L27.3719 41.7098L27.371 41.7103L27.625 42.141ZM31.0105 42.141L30.7565 42.5717L30.7574 42.5722L31.0105 42.141ZM32.1917 43.4102L31.7483 43.6412L31.7495 43.6435L32.1917 43.4102ZM31.0597 44.0184L30.6033 44.2225L30.6048 44.2259L31.0597 44.0184ZM30.3566 43.1641L30.0846 43.5836L30.0869 43.5851L30.3566 43.1641ZM28.2824 43.1641L28.5521 43.5851L28.5544 43.5836L28.2824 43.1641ZM27.5757 44.0184L27.1204 43.8119L27.1198 43.8132L27.5757 44.0184ZM27.5757 46.7852L27.1193 46.9893L27.1208 46.9927L27.5757 46.7852ZM28.2824 47.6395L28.0103 48.059L28.0127 48.0605L28.2824 47.6395ZM30.3566 47.6395L30.6263 48.0605L30.6286 48.059L30.3566 47.6395ZM31.0597 46.7852L30.6043 46.5787L30.6038 46.58L31.0597 46.7852ZM32.1277 45.4C32.1277 46.114 31.994 46.6947 31.7491 47.1608L32.6344 47.6259C32.9707 46.9858 33.1277 46.2376 33.1277 45.4H32.1277ZM31.7488 47.1615C31.5005 47.6357 31.1699 47.9857 30.7574 48.2278L31.2636 49.0902C31.8495 48.7464 32.3064 48.2525 32.6347 47.6252L31.7488 47.1615ZM30.7565 48.2283C30.3437 48.4717 29.8692 48.5984 29.3195 48.5984V49.5984C30.0307 49.5984 30.6836 49.4322 31.2645 49.0897L30.7565 48.2283ZM29.3195 48.5984C28.7698 48.5984 28.2937 48.4717 27.878 48.2278L27.3719 49.0902C27.9546 49.4322 28.6082 49.5984 29.3195 49.5984V48.5984ZM27.8804 48.2292C27.4688 47.9845 27.137 47.6324 26.8859 47.1565L26.0015 47.6232C26.3316 48.2489 26.7873 48.7428 27.3695 49.0888L27.8804 48.2292ZM26.8871 47.1588C26.6439 46.6921 26.5113 46.1119 26.5113 45.4H25.5113C25.5113 46.2349 25.667 46.9813 26.0003 47.6209L26.8871 47.1588ZM26.5113 45.4C26.5113 44.6853 26.644 44.1057 26.8867 43.642L26.0007 43.1783C25.6668 43.8162 25.5113 44.5631 25.5113 45.4H26.5113ZM26.8863 43.6427C27.1374 43.1648 27.4688 42.8135 27.8789 42.5717L27.371 41.7103C26.7874 42.0544 26.3312 42.5493 26.0011 43.1776L26.8863 43.6427ZM27.878 42.5722C28.2937 42.3283 28.7698 42.2016 29.3195 42.2016V41.2016C28.6082 41.2016 27.9546 41.3678 27.3719 41.7098L27.878 42.5722ZM29.3195 42.2016C29.8692 42.2016 30.3437 42.3283 30.7565 42.5717L31.2645 41.7103C30.6836 41.3678 30.0307 41.2016 29.3195 41.2016V42.2016ZM30.7574 42.5722C31.1694 42.814 31.5 43.1647 31.7484 43.6412L32.6351 43.1791C32.307 42.5494 31.8501 42.054 31.2636 41.7098L30.7574 42.5722ZM31.7495 43.6435C31.994 44.1068 32.1277 44.6859 32.1277 45.4H33.1277C33.1277 44.5625 32.9707 43.8151 32.634 43.1768L31.7495 43.6435ZM31.8164 45.4C31.8164 44.8045 31.7234 44.2685 31.5146 43.8108L30.6048 44.2259C30.7382 44.5182 30.8164 44.9034 30.8164 45.4H31.8164ZM31.5162 43.8142C31.3142 43.3625 31.0208 42.9958 30.6263 42.743L30.0869 43.5851C30.2923 43.7167 30.4678 43.9195 30.6033 44.2225L31.5162 43.8142ZM30.6286 42.7445C30.24 42.4925 29.7979 42.3723 29.3195 42.3723V43.3723C29.6239 43.3723 29.8732 43.4465 30.0846 43.5836L30.6286 42.7445ZM29.3195 42.3723C28.841 42.3723 28.399 42.4925 28.0103 42.7445L28.5544 43.5836C28.7658 43.4465 29.0151 43.3723 29.3195 43.3723V42.3723ZM28.0127 42.743C27.6188 42.9954 27.3247 43.3612 27.1204 43.8119L28.0311 44.2248C28.169 43.9208 28.3459 43.7171 28.5521 43.5851L28.0127 42.743ZM27.1198 43.8132C26.9141 44.2702 26.8226 44.8052 26.8226 45.4H27.8226C27.8226 44.9026 27.8998 44.5166 28.0317 44.2235L27.1198 43.8132ZM26.8226 45.4C26.8226 45.9949 26.9142 46.5306 27.1193 46.9893L28.0322 46.581C27.8998 46.285 27.8226 45.8973 27.8226 45.4H26.8226ZM27.1208 46.9927C27.3253 47.4408 27.6188 47.8051 28.0103 48.059L28.5544 47.2199C28.3459 47.0847 28.1684 46.8795 28.0306 46.5776L27.1208 46.9927ZM28.0127 48.0605C28.401 48.3093 28.8423 48.4277 29.3195 48.4277V47.4277C29.0139 47.4277 28.7637 47.354 28.5521 47.2184L28.0127 48.0605ZM29.3195 48.4277C29.7967 48.4277 30.2379 48.3093 30.6263 48.0605L30.0869 47.2184C29.8752 47.354 29.6251 47.4277 29.3195 47.4277V48.4277ZM30.6286 48.059C31.0208 47.8047 31.3136 47.4395 31.5157 46.9903L30.6038 46.58C30.4684 46.8808 30.2924 47.0852 30.0846 47.2199L30.6286 48.059ZM31.5151 46.9916C31.7234 46.5323 31.8164 45.9957 31.8164 45.4H30.8164C30.8164 45.8965 30.7382 46.2833 30.6043 46.5787L31.5151 46.9916ZM34.6923 49L34.2111 49.1358L34.3139 49.5H34.6923V49ZM32.6603 41.8V41.3H31.9997L32.1791 41.9358L32.6603 41.8ZM34.063 41.8L34.5487 41.6809L34.4553 41.3H34.063V41.8ZM35.3603 47.091L34.8747 47.2101L34.9681 47.591H35.3603V47.091ZM35.4271 47.091V47.591H35.8131L35.9108 47.2176L35.4271 47.091ZM36.8123 41.8V41.3H36.4263L36.3286 41.6734L36.8123 41.8ZM38.0884 41.8L38.5721 41.6731L38.4742 41.3H38.0884V41.8ZM39.4771 47.0945L38.9935 47.2214L39.0913 47.5945H39.4771V47.0945ZM39.5404 47.0945V47.5945H39.9327L40.026 47.2135L39.5404 47.0945ZM40.8376 41.8V41.3H40.4454L40.352 41.681L40.8376 41.8ZM42.2404 41.8L42.7216 41.9358L42.901 41.3H42.2404V41.8ZM40.2083 49V49.5H40.5868L40.6896 49.1358L40.2083 49ZM38.9216 49L38.4408 49.1372L38.5443 49.5H38.9216V49ZM37.4802 43.948L37.961 43.8109L37.8575 43.448H37.4802V43.948ZM37.424 43.948V43.448H37.0469L36.9433 43.8106L37.424 43.948ZM35.9791 49V49.5H36.3561L36.4598 49.1375L35.9791 49ZM35.1735 48.8642L33.1415 41.6642L32.1791 41.9358L34.2111 49.1358L35.1735 48.8642ZM32.6603 42.3H34.063V41.3H32.6603V42.3ZM33.5774 41.9191L34.8747 47.2101L35.8459 46.972L34.5487 41.6809L33.5774 41.9191ZM35.3603 47.591H35.4271V46.591H35.3603V47.591ZM35.9108 47.2176L37.296 41.9266L36.3286 41.6734L34.9434 46.9644L35.9108 47.2176ZM36.8123 42.3H38.0884V41.3H36.8123V42.3ZM37.6048 41.9269L38.9935 47.2214L39.9607 46.9677L38.5721 41.6731L37.6048 41.9269ZM39.4771 47.5945H39.5404V46.5945H39.4771V47.5945ZM40.026 47.2135L41.3233 41.919L40.352 41.681L39.0547 46.9755L40.026 47.2135ZM40.8376 42.3H42.2404V41.3H40.8376V42.3ZM41.7592 41.6642L39.7271 48.8642L40.6896 49.1358L42.7216 41.9358L41.7592 41.6642ZM40.2083 48.5H38.9216V49.5H40.2083V48.5ZM39.4024 48.8628L37.961 43.8109L36.9994 44.0852L38.4408 49.1372L39.4024 48.8628ZM37.4802 43.448H37.424V44.448H37.4802V43.448ZM36.9433 43.8106L35.4983 48.8625L36.4598 49.1375L37.9047 44.0855L36.9433 43.8106ZM35.9791 48.5H34.6923V49.5H35.9791V48.5Z" fill="white"/>
<path d="M10 100.278H4.18182V98.0959C4.18182 97.6489 4.25947 97.2739 4.41477 96.9709C4.57008 96.666 4.78788 96.4358 5.06818 96.2805C5.34659 96.1233 5.6714 96.0447 6.04261 96.0447C6.41572 96.0447 6.73958 96.1243 7.0142 96.2834C7.28693 96.4406 7.49811 96.6726 7.64773 96.9794C7.79545 97.2862 7.86932 97.6631 7.86932 98.1101V99.6641H6.99432V98.2521C6.99432 97.9908 6.95833 97.7768 6.88636 97.6101C6.8125 97.4434 6.70549 97.3203 6.56534 97.2408C6.4233 97.1593 6.24905 97.1186 6.04261 97.1186C5.83617 97.1186 5.66004 97.1593 5.5142 97.2408C5.36648 97.3222 5.25473 97.4463 5.17898 97.6129C5.10133 97.7796 5.0625 97.9946 5.0625 98.2578V99.2237H10V100.278ZM7.36364 97.272L10 95.8317V97.0078L7.36364 98.4226V97.272ZM10.0852 93.7507C10.0852 94.1882 9.99432 94.5661 9.8125 94.8842C9.62879 95.2005 9.36932 95.4439 9.03409 95.6143C8.69697 95.7848 8.30019 95.87 7.84375 95.87C7.39489 95.87 7.00095 95.7848 6.66193 95.6143C6.32102 95.442 6.05587 95.2015 5.86648 94.8928C5.67519 94.584 5.57955 94.2214 5.57955 93.8047C5.57955 93.5357 5.62311 93.282 5.71023 93.0433C5.79545 92.8028 5.92803 92.5907 6.10795 92.407C6.28788 92.2214 6.51705 92.0755 6.79545 91.9695C7.07197 91.8634 7.40152 91.8104 7.78409 91.8104H8.09943V95.3871H7.40625V92.7962C7.20928 92.7981 7.03409 92.8407 6.88068 92.924C6.72538 93.0073 6.60322 93.1238 6.5142 93.2734C6.42519 93.4212 6.38068 93.5935 6.38068 93.7905C6.38068 94.0007 6.43182 94.1854 6.53409 94.3445C6.63447 94.5036 6.76705 94.6276 6.93182 94.7166C7.0947 94.8037 7.27367 94.8482 7.46875 94.8501H8.07386C8.32765 94.8501 8.54545 94.8037 8.72727 94.7109C8.9072 94.6181 9.04545 94.4884 9.14205 94.3217C9.23674 94.1551 9.28409 93.96 9.28409 93.7365C9.28409 93.5869 9.26326 93.4515 9.22159 93.3303C9.17803 93.209 9.11458 93.1039 9.03125 93.0149C8.94792 92.9259 8.8447 92.8587 8.72159 92.8132L8.82955 91.853C9.08333 91.9136 9.30492 92.0291 9.49432 92.1996C9.68182 92.3681 9.82765 92.584 9.93182 92.8473C10.0341 93.1106 10.0852 93.4117 10.0852 93.7507ZM10.0767 89.821C10.0767 90.1638 9.98864 90.4706 9.8125 90.7415C9.63636 91.0123 9.38068 91.2263 9.04545 91.3835C8.71023 91.5407 8.30303 91.6193 7.82386 91.6193C7.33902 91.6193 6.92992 91.5398 6.59659 91.3807C6.26136 91.2197 6.00852 91.0028 5.83807 90.7301C5.66572 90.4574 5.57955 90.1534 5.57955 89.8182C5.57955 89.5625 5.62311 89.3523 5.71023 89.1875C5.79545 89.0227 5.89867 88.892 6.01989 88.7955C6.1392 88.6989 6.25189 88.6241 6.35795 88.571V88.5284H4.18182V87.4972H10V88.5085H9.3125V88.571C9.41856 88.6241 9.53125 88.7008 9.65057 88.8011C9.76799 88.9015 9.86837 89.0341 9.9517 89.1989C10.035 89.3636 10.0767 89.571 10.0767 89.821ZM9.23295 89.5341C9.23295 89.3163 9.17424 89.1307 9.05682 88.9773C8.9375 88.8239 8.77178 88.7074 8.55966 88.6278C8.34754 88.5483 8.10038 88.5085 7.81818 88.5085C7.53598 88.5085 7.29072 88.5483 7.08239 88.6278C6.87405 88.7055 6.71212 88.821 6.59659 88.9744C6.48106 89.1259 6.4233 89.3125 6.4233 89.5341C6.4233 89.7633 6.48295 89.9545 6.60227 90.108C6.72159 90.2614 6.88636 90.3769 7.09659 90.4545C7.30682 90.5322 7.54735 90.571 7.81818 90.571C8.09091 90.571 8.33428 90.5322 8.5483 90.4545C8.76042 90.375 8.92803 90.2585 9.05114 90.1051C9.17235 89.9498 9.23295 89.7595 9.23295 89.5341ZM10 85.3714H4.18182L4.18182 83.1442C4.18182 82.7237 4.24811 82.3743 4.38068 82.0959C4.51136 81.8156 4.69034 81.6063 4.91761 81.468C5.14489 81.3279 5.40246 81.2578 5.69034 81.2578C5.92708 81.2578 6.12973 81.3033 6.2983 81.3942C6.46496 81.4851 6.60038 81.6072 6.70455 81.7607C6.80871 81.9141 6.88352 82.0855 6.92898 82.2749H6.9858C6.99716 82.0684 7.06061 81.8705 7.17614 81.6811C7.28977 81.4898 7.45076 81.3336 7.65909 81.2124C7.86742 81.0911 8.11932 81.0305 8.41477 81.0305C8.71591 81.0305 8.98674 81.1035 9.22727 81.2493C9.46591 81.3951 9.65436 81.6148 9.79261 81.9084C9.93087 82.2019 10 82.5713 10 83.0163V85.3714ZM9.11932 84.3175V83.1839C9.11932 82.8014 9.0464 82.5258 8.90057 82.3572C8.75284 82.1868 8.56345 82.1016 8.33239 82.1016C8.16004 82.1016 8.00473 82.1442 7.86648 82.2294C7.72633 82.3146 7.61648 82.4358 7.53693 82.593C7.45549 82.7502 7.41477 82.9377 7.41477 83.1555V84.3175H9.11932ZM6.65625 84.3175V83.2749C6.65625 83.093 6.62311 82.9292 6.55682 82.7834C6.48864 82.6375 6.39299 82.523 6.26989 82.4396C6.14489 82.3544 5.99716 82.3118 5.8267 82.3118C5.60133 82.3118 5.41572 82.3913 5.26989 82.5504C5.12405 82.7076 5.05114 82.9415 5.05114 83.2521V84.3175H6.65625ZM8.16477 77.8778H5.63636V76.8494H10V77.8466H9.22443V77.892C9.46875 77.9905 9.66856 78.1525 9.82386 78.3778C9.97917 78.6013 10.0568 78.8769 10.0568 79.2045C10.0568 79.4905 9.99337 79.7434 9.86648 79.9631C9.73769 80.1809 9.55114 80.3513 9.30682 80.4744C9.06061 80.5975 8.76326 80.6591 8.41477 80.6591H5.63636V79.6307H8.25568C8.5322 79.6307 8.75189 79.5549 8.91477 79.4034C9.07765 79.2519 9.15909 79.053 9.15909 78.8068C9.15909 78.6553 9.12216 78.5085 9.0483 78.3665C8.97443 78.2244 8.86458 78.108 8.71875 78.017C8.57102 77.9242 8.38636 77.8778 8.16477 77.8778ZM4.18182 75.2635H10V76.2919H4.18182V75.2635ZM4.18182 73.6776H10V74.706H4.18182V73.6776Z" fill="white"/>
</svg>
