<svg width="46" height="110" viewBox="0 0 46 110" fill="none" xmlns="http://www.w3.org/2000/svg">
<rect x="1" y="3" width="44" height="104" rx="4" fill="#ABABAB"/>
<path d="M8 2.5C8 1.67157 8.67157 1 9.5 1H36.5C37.3284 1 38 1.67157 38 2.5V4H8V2.5Z" fill="#ABABAB"/>
<path d="M41 107C41 108.105 40.1046 109 39 109L7 109C5.89543 109 5 108.105 5 107V107L41 107V107Z" fill="#ABABAB"/>
<rect x="3" y="5" width="40" height="100" rx="3" fill="#33CEFF"/>
<path d="M10 5H40C41.6569 5 43 6.34315 43 8V9C43 9 32.5 11.5 27 15.5C24.7667 17.1242 20 23.5 17.5 24.5C16.4122 24.9351 14.5 25.25 13 24.5C11.1428 23.5714 9.74833 17.5596 9.03417 13.7218C8.63946 11.6007 8.79264 9.427 9.36032 7.34551L10 5Z" fill="white"/>
<path d="M6.80309 50V39.8182H10.7008C11.4366 39.8182 12.0481 39.9342 12.5353 40.1662C13.0259 40.3949 13.3921 40.7081 13.6341 41.1058C13.8793 41.5036 14.002 41.9543 14.002 42.4581C14.002 42.8724 13.9224 43.227 13.7633 43.522C13.6042 43.8137 13.3904 44.0507 13.122 44.233C12.8535 44.4152 12.5536 44.5462 12.2221 44.6257V44.7251C12.5834 44.745 12.9297 44.8561 13.2612 45.0582C13.5959 45.2571 13.8694 45.5388 14.0815 45.9034C14.2936 46.268 14.3997 46.7088 14.3997 47.2259C14.3997 47.7528 14.2721 48.2268 14.0169 48.6477C13.7617 49.0653 13.3772 49.3951 12.8635 49.6371C12.3497 49.879 11.7034 50 10.9245 50H6.80309ZM8.64755 48.4588H10.6312C11.3007 48.4588 11.783 48.3312 12.0779 48.076C12.3762 47.8175 12.5254 47.486 12.5254 47.0817C12.5254 46.7801 12.4508 46.5083 12.3017 46.2663C12.1525 46.0211 11.9404 45.8288 11.6653 45.6896C11.3902 45.5471 11.0621 45.4759 10.6809 45.4759H8.64755V48.4588ZM8.64755 44.1484H10.4721C10.7903 44.1484 11.077 44.0904 11.3322 43.9744C11.5874 43.8551 11.7879 43.6877 11.9338 43.4723C12.0829 43.2536 12.1575 42.995 12.1575 42.6967C12.1575 42.3023 12.0183 41.9775 11.7399 41.7223C11.4648 41.4671 11.0555 41.3395 10.5119 41.3395H8.64755V44.1484ZM15.5043 50V39.8182H17.3487V48.4538H21.8331V50H15.5043ZM29.3523 39.8182H31.1967V46.4702C31.1967 47.1993 31.0244 47.8407 30.6797 48.3942C30.3383 48.9477 29.8577 49.3802 29.2379 49.6918C28.6181 50 27.8939 50.1541 27.0653 50.1541C26.2334 50.1541 25.5076 50 24.8878 49.6918C24.268 49.3802 23.7874 48.9477 23.446 48.3942C23.1046 47.8407 22.9339 47.1993 22.9339 46.4702V39.8182H24.7784V46.3161C24.7784 46.7403 24.8712 47.1181 25.0568 47.4496C25.2457 47.781 25.5109 48.0412 25.8523 48.2301C26.1937 48.4157 26.598 48.5085 27.0653 48.5085C27.5327 48.5085 27.937 48.4157 28.2784 48.2301C28.6231 48.0412 28.8883 47.781 29.0739 47.4496C29.2595 47.1181 29.3523 46.7403 29.3523 46.3161V39.8182ZM32.7015 50V39.8182H39.3237V41.3643H34.546V44.1286H38.9806V45.6747H34.546V48.4538H39.3635V50H32.7015Z" fill="#33CEFF"/>
<path d="M6.80309 50H6.30309V50.5H6.80309V50ZM6.80309 39.8182V39.3182H6.30309V39.8182H6.80309ZM12.5353 40.1662L12.3204 40.6176L12.3241 40.6194L12.5353 40.1662ZM13.6341 41.1058L13.2069 41.3657L13.2085 41.3683L13.6341 41.1058ZM13.7633 43.522L14.2023 43.7614L14.2034 43.7594L13.7633 43.522ZM13.122 44.233L12.8411 43.8193L12.8411 43.8193L13.122 44.233ZM12.2221 44.6257L12.1054 44.1395L11.7221 44.2315V44.6257H12.2221ZM12.2221 44.7251H11.7221V45.1984L12.1946 45.2244L12.2221 44.7251ZM13.2612 45.0582L13.0008 45.4851L13.0058 45.4881L13.2612 45.0582ZM14.0815 45.9034L13.6493 46.1549L13.6493 46.1549L14.0815 45.9034ZM14.0169 48.6477L14.4435 48.9085L14.4444 48.907L14.0169 48.6477ZM12.8635 49.6371L12.6504 49.1847L12.8635 49.6371ZM8.64755 48.4588H8.14755V48.9588H8.64755V48.4588ZM12.0779 48.076L12.4051 48.4541L12.4054 48.4538L12.0779 48.076ZM12.3017 46.2663L11.8745 46.5261L11.876 46.5287L12.3017 46.2663ZM11.6653 45.6896L11.4353 46.1336L11.4396 46.1358L11.6653 45.6896ZM8.64755 45.4759V44.9759H8.14755V45.4759H8.64755ZM8.64755 44.1484H8.14755V44.6484H8.64755V44.1484ZM11.3322 43.9744L11.5391 44.4296L11.544 44.4274L11.3322 43.9744ZM11.9338 43.4723L11.5207 43.1906L11.5197 43.192L11.9338 43.4723ZM11.7399 41.7223L11.3998 42.0889L11.402 42.0909L11.7399 41.7223ZM8.64755 41.3395V40.8395H8.14755V41.3395H8.64755ZM7.30309 50V39.8182H6.30309V50H7.30309ZM6.80309 40.3182H10.7008V39.3182H6.80309V40.3182ZM10.7008 40.3182C11.3878 40.3182 11.9201 40.427 12.3204 40.6176L12.7503 39.7148C12.1762 39.4414 11.4854 39.3182 10.7008 39.3182V40.3182ZM12.3241 40.6194C12.74 40.8133 13.0242 41.0653 13.2069 41.3657L14.0612 40.846C13.76 40.3509 13.3117 39.9765 12.7466 39.713L12.3241 40.6194ZM13.2085 41.3683C13.4013 41.6809 13.502 42.0395 13.502 42.4581H14.502C14.502 41.8691 14.3574 41.3262 14.0596 40.8434L13.2085 41.3683ZM13.502 42.4581C13.502 42.8088 13.4348 43.0779 13.3232 43.2847L14.2034 43.7594C14.4101 43.3762 14.502 42.936 14.502 42.4581H13.502ZM13.3244 43.2826C13.2024 43.5062 13.0422 43.6828 12.8411 43.8193L13.4029 44.6466C13.7387 44.4185 14.006 44.1212 14.2023 43.7614L13.3244 43.2826ZM12.8411 43.8193C12.625 43.966 12.3812 44.0733 12.1054 44.1395L12.3388 45.1119C12.7259 45.019 13.082 44.8645 13.4029 44.6466L12.8411 43.8193ZM11.7221 44.6257V44.7251H12.7221V44.6257H11.7221ZM12.1946 45.2244C12.4675 45.2394 12.7345 45.3227 13.0008 45.4851L13.5216 44.6314C13.1249 44.3895 12.6993 44.2506 12.2496 44.2259L12.1946 45.2244ZM13.0058 45.4881C13.2614 45.6399 13.4763 45.8575 13.6493 46.1549L14.5137 45.652C14.2624 45.2201 13.9305 44.8743 13.5166 44.6284L13.0058 45.4881ZM13.6493 46.1549C13.808 46.4276 13.8997 46.7773 13.8997 47.2259H14.8997C14.8997 46.6403 14.7792 46.1084 14.5137 45.652L13.6493 46.1549ZM13.8997 47.2259C13.8997 47.6681 13.7938 48.0513 13.5893 48.3885L14.4444 48.907C14.7504 48.4023 14.8997 47.8375 14.8997 47.2259H13.8997ZM13.5902 48.387C13.3937 48.7085 13.0903 48.9776 12.6504 49.1847L13.0765 50.0894C13.6641 49.8127 14.1296 49.4221 14.4435 48.9085L13.5902 48.387ZM12.6504 49.1847C12.2233 49.3859 11.6556 49.5 10.9245 49.5V50.5C11.7513 50.5 12.4762 50.3721 13.0765 50.0894L12.6504 49.1847ZM10.9245 49.5H6.80309V50.5H10.9245V49.5ZM8.64755 48.9588H10.6312V47.9588H8.64755V48.9588ZM10.6312 48.9588C11.3422 48.9588 11.9736 48.8275 12.4051 48.4541L11.7508 47.6979C11.5924 47.8349 11.2593 47.9588 10.6312 47.9588V48.9588ZM12.4054 48.4538C12.8163 48.0977 13.0254 47.627 13.0254 47.0817H12.0254C12.0254 47.3451 11.9362 47.5372 11.7505 47.6981L12.4054 48.4538ZM13.0254 47.0817C13.0254 46.6933 12.9281 46.3297 12.7273 46.004L11.876 46.5287C11.9736 46.6869 12.0254 46.8668 12.0254 47.0817H13.0254ZM12.7289 46.0065C12.5277 45.6757 12.243 45.4216 11.8911 45.2435L11.4396 46.1358C11.6378 46.2361 11.7774 46.3665 11.8745 46.5261L12.7289 46.0065ZM11.8953 45.2457C11.5346 45.0588 11.124 44.9759 10.6809 44.9759V45.9759C11.0002 45.9759 11.2458 46.0354 11.4353 46.1336L11.8953 45.2457ZM10.6809 44.9759H8.64755V45.9759H10.6809V44.9759ZM8.14755 45.4759V48.4588H9.14755V45.4759H8.14755ZM8.64755 44.6484H10.4721V43.6484H8.64755V44.6484ZM10.4721 44.6484C10.852 44.6484 11.2107 44.5789 11.5391 44.4296L11.1253 43.5192C10.9433 43.602 10.7286 43.6484 10.4721 43.6484V44.6484ZM11.544 44.4274C11.8739 44.2731 12.1472 44.0489 12.3478 43.7526L11.5197 43.192C11.4287 43.3265 11.3009 43.4371 11.1204 43.5215L11.544 44.4274ZM12.3469 43.754C12.5596 43.4419 12.6575 43.0823 12.6575 42.6967H11.6575C11.6575 42.9077 11.6062 43.0652 11.5207 43.1906L12.3469 43.754ZM12.6575 42.6967C12.6575 42.1692 12.4645 41.7083 12.0777 41.3537L11.402 42.0909C11.572 42.2467 11.6575 42.4355 11.6575 42.6967H12.6575ZM12.0799 41.3557C11.6782 40.983 11.1255 40.8395 10.5119 40.8395V41.8395C10.9854 41.8395 11.2514 41.9512 11.3998 42.0889L12.0799 41.3557ZM10.5119 40.8395H8.64755V41.8395H10.5119V40.8395ZM8.14755 41.3395V44.1484H9.14755V41.3395H8.14755ZM15.5043 50H15.0043V50.5H15.5043V50ZM15.5043 39.8182V39.3182H15.0043V39.8182H15.5043ZM17.3487 39.8182H17.8487V39.3182H17.3487V39.8182ZM17.3487 48.4538H16.8487V48.9538H17.3487V48.4538ZM21.8331 48.4538H22.3331V47.9538H21.8331V48.4538ZM21.8331 50V50.5H22.3331V50H21.8331ZM16.0043 50V39.8182H15.0043V50H16.0043ZM15.5043 40.3182H17.3487V39.3182H15.5043V40.3182ZM16.8487 39.8182V48.4538H17.8487V39.8182H16.8487ZM17.3487 48.9538H21.8331V47.9538H17.3487V48.9538ZM21.3331 48.4538V50H22.3331V48.4538H21.3331ZM21.8331 49.5H15.5043V50.5H21.8331V49.5ZM29.3523 39.8182V39.3182H28.8523V39.8182H29.3523ZM31.1967 39.8182H31.6967V39.3182H31.1967V39.8182ZM30.6797 48.3942L30.2553 48.1299L30.2541 48.1317L30.6797 48.3942ZM29.2379 49.6918L29.4606 50.1395L29.4625 50.1385L29.2379 49.6918ZM24.8878 49.6918L24.6632 50.1385L24.6651 50.1395L24.8878 49.6918ZM23.446 48.3942L23.8716 48.1317L23.8716 48.1317L23.446 48.3942ZM22.9339 39.8182V39.3182H22.4339V39.8182H22.9339ZM24.7784 39.8182H25.2784V39.3182H24.7784V39.8182ZM25.0568 47.4496L24.6206 47.6939L24.6224 47.6972L25.0568 47.4496ZM25.8523 48.2301L25.6102 48.6676L25.6134 48.6694L25.8523 48.2301ZM28.2784 48.2301L28.5172 48.6694L28.5187 48.6686L28.2784 48.2301ZM29.0739 47.4496L29.5101 47.6939L29.5101 47.6939L29.0739 47.4496ZM29.3523 40.3182H31.1967V39.3182H29.3523V40.3182ZM30.6967 39.8182V46.4702H31.6967V39.8182H30.6967ZM30.6967 46.4702C30.6967 47.1173 30.5449 47.6648 30.2553 48.1299L31.1041 48.6585C31.5039 48.0165 31.6967 47.2814 31.6967 46.4702H30.6967ZM30.2541 48.1317C29.9646 48.601 29.5561 48.9722 29.0134 49.245L29.4625 50.1385C30.1593 49.7882 30.712 49.2943 31.1053 48.6567L30.2541 48.1317ZM29.0153 49.2441C28.477 49.5118 27.8318 49.6541 27.0653 49.6541V50.6541C27.9561 50.6541 28.7593 50.4882 29.4606 50.1395L29.0153 49.2441ZM27.0653 49.6541C26.2953 49.6541 25.6484 49.5116 25.1104 49.2441L24.6651 50.1395C25.3667 50.4884 26.1716 50.6541 27.0653 50.6541V49.6541ZM25.1123 49.245C24.5696 48.9722 24.1611 48.601 23.8716 48.1317L23.0205 48.6567C23.4137 49.2943 23.9664 49.7882 24.6632 50.1385L25.1123 49.245ZM23.8716 48.1317C23.5846 47.6664 23.4339 47.1182 23.4339 46.4702H22.4339C22.4339 47.2805 22.6247 48.015 23.0205 48.6567L23.8716 48.1317ZM23.4339 46.4702V39.8182H22.4339V46.4702H23.4339ZM22.9339 40.3182H24.7784V39.3182H22.9339V40.3182ZM24.2784 39.8182V46.3161H25.2784V39.8182H24.2784ZM24.2784 46.3161C24.2784 46.8156 24.3884 47.2794 24.6206 47.6939L25.4931 47.2053C25.354 46.9569 25.2784 46.6649 25.2784 46.3161H24.2784ZM24.6224 47.6972C24.8579 48.1102 25.1904 48.4353 25.6102 48.6676L26.0944 47.7926C25.8314 47.6471 25.6336 47.4518 25.4912 47.202L24.6224 47.6972ZM25.6134 48.6694C26.0416 48.9022 26.5314 49.0085 27.0653 49.0085V48.0085C26.6646 48.0085 26.3457 47.9293 26.0911 47.7908L25.6134 48.6694ZM27.0653 49.0085C27.5993 49.0085 28.0891 48.9022 28.5172 48.6694L28.0396 47.7908C27.785 47.9293 27.4661 48.0085 27.0653 48.0085V49.0085ZM28.5187 48.6686C28.9426 48.4362 29.277 48.1101 29.5101 47.6939L28.6376 47.2053C28.4995 47.452 28.3036 47.6461 28.0381 47.7917L28.5187 48.6686ZM29.5101 47.6939C29.7422 47.2794 29.8523 46.8156 29.8523 46.3161H28.8523C28.8523 46.6649 28.7767 46.9569 28.6376 47.2053L29.5101 47.6939ZM29.8523 46.3161V39.8182H28.8523V46.3161H29.8523ZM32.7015 50H32.2015V50.5H32.7015V50ZM32.7015 39.8182V39.3182H32.2015V39.8182H32.7015ZM39.3237 39.8182H39.8237V39.3182H39.3237V39.8182ZM39.3237 41.3643V41.8643H39.8237V41.3643H39.3237ZM34.546 41.3643V40.8643H34.046V41.3643H34.546ZM34.546 44.1286H34.046V44.6286H34.546V44.1286ZM38.9806 44.1286H39.4806V43.6286H38.9806V44.1286ZM38.9806 45.6747V46.1747H39.4806V45.6747H38.9806ZM34.546 45.6747V45.1747H34.046V45.6747H34.546ZM34.546 48.4538H34.046V48.9538H34.546V48.4538ZM39.3635 48.4538H39.8635V47.9538H39.3635V48.4538ZM39.3635 50V50.5H39.8635V50H39.3635ZM33.2015 50V39.8182H32.2015V50H33.2015ZM32.7015 40.3182H39.3237V39.3182H32.7015V40.3182ZM38.8237 39.8182V41.3643H39.8237V39.8182H38.8237ZM39.3237 40.8643H34.546V41.8643H39.3237V40.8643ZM34.046 41.3643V44.1286H35.046V41.3643H34.046ZM34.546 44.6286H38.9806V43.6286H34.546V44.6286ZM38.4806 44.1286V45.6747H39.4806V44.1286H38.4806ZM38.9806 45.1747H34.546V46.1747H38.9806V45.1747ZM34.046 45.6747V48.4538H35.046V45.6747H34.046ZM34.546 48.9538H39.3635V47.9538H34.546V48.9538ZM38.8635 48.4538V50H39.8635V48.4538H38.8635ZM39.3635 49.5H32.7015V50.5H39.3635V49.5Z" fill="white"/>
<path d="M10 100.278H4.18182V98.0959C4.18182 97.6489 4.25947 97.2739 4.41477 96.9709C4.57008 96.666 4.78788 96.4358 5.06818 96.2805C5.34659 96.1233 5.6714 96.0447 6.04261 96.0447C6.41572 96.0447 6.73958 96.1243 7.0142 96.2834C7.28693 96.4406 7.49811 96.6726 7.64773 96.9794C7.79545 97.2862 7.86932 97.6631 7.86932 98.1101V99.6641H6.99432V98.2521C6.99432 97.9908 6.95833 97.7768 6.88636 97.6101C6.8125 97.4434 6.70549 97.3203 6.56534 97.2408C6.4233 97.1593 6.24905 97.1186 6.04261 97.1186C5.83617 97.1186 5.66004 97.1593 5.5142 97.2408C5.36648 97.3222 5.25473 97.4463 5.17898 97.6129C5.10133 97.7796 5.0625 97.9946 5.0625 98.2578V99.2237H10V100.278ZM7.36364 97.272L10 95.8317V97.0078L7.36364 98.4226V97.272ZM10.0852 93.7507C10.0852 94.1882 9.99432 94.5661 9.8125 94.8842C9.62879 95.2005 9.36932 95.4439 9.03409 95.6143C8.69697 95.7848 8.30019 95.87 7.84375 95.87C7.39489 95.87 7.00095 95.7848 6.66193 95.6143C6.32102 95.442 6.05587 95.2015 5.86648 94.8928C5.67519 94.584 5.57955 94.2214 5.57955 93.8047C5.57955 93.5357 5.62311 93.282 5.71023 93.0433C5.79545 92.8028 5.92803 92.5907 6.10795 92.407C6.28788 92.2214 6.51705 92.0755 6.79545 91.9695C7.07197 91.8634 7.40152 91.8104 7.78409 91.8104H8.09943V95.3871H7.40625V92.7962C7.20928 92.7981 7.03409 92.8407 6.88068 92.924C6.72538 93.0073 6.60322 93.1238 6.5142 93.2734C6.42519 93.4212 6.38068 93.5935 6.38068 93.7905C6.38068 94.0007 6.43182 94.1854 6.53409 94.3445C6.63447 94.5036 6.76705 94.6276 6.93182 94.7166C7.0947 94.8037 7.27367 94.8482 7.46875 94.8501H8.07386C8.32765 94.8501 8.54545 94.8037 8.72727 94.7109C8.9072 94.6181 9.04545 94.4884 9.14205 94.3217C9.23674 94.1551 9.28409 93.96 9.28409 93.7365C9.28409 93.5869 9.26326 93.4515 9.22159 93.3303C9.17803 93.209 9.11458 93.1039 9.03125 93.0149C8.94792 92.9259 8.8447 92.8587 8.72159 92.8132L8.82955 91.853C9.08333 91.9136 9.30492 92.0291 9.49432 92.1996C9.68182 92.3681 9.82765 92.584 9.93182 92.8473C10.0341 93.1106 10.0852 93.4117 10.0852 93.7507ZM10.0767 89.821C10.0767 90.1638 9.98864 90.4706 9.8125 90.7415C9.63636 91.0123 9.38068 91.2263 9.04545 91.3835C8.71023 91.5407 8.30303 91.6193 7.82386 91.6193C7.33902 91.6193 6.92992 91.5398 6.59659 91.3807C6.26136 91.2197 6.00852 91.0028 5.83807 90.7301C5.66572 90.4574 5.57955 90.1534 5.57955 89.8182C5.57955 89.5625 5.62311 89.3523 5.71023 89.1875C5.79545 89.0227 5.89867 88.892 6.01989 88.7955C6.1392 88.6989 6.25189 88.6241 6.35795 88.571V88.5284H4.18182V87.4972H10V88.5085H9.3125V88.571C9.41856 88.6241 9.53125 88.7008 9.65057 88.8011C9.76799 88.9015 9.86837 89.0341 9.9517 89.1989C10.035 89.3636 10.0767 89.571 10.0767 89.821ZM9.23295 89.5341C9.23295 89.3163 9.17424 89.1307 9.05682 88.9773C8.9375 88.8239 8.77178 88.7074 8.55966 88.6278C8.34754 88.5483 8.10038 88.5085 7.81818 88.5085C7.53598 88.5085 7.29072 88.5483 7.08239 88.6278C6.87405 88.7055 6.71212 88.821 6.59659 88.9744C6.48106 89.1259 6.4233 89.3125 6.4233 89.5341C6.4233 89.7633 6.48295 89.9545 6.60227 90.108C6.72159 90.2614 6.88636 90.3769 7.09659 90.4545C7.30682 90.5322 7.54735 90.571 7.81818 90.571C8.09091 90.571 8.33428 90.5322 8.5483 90.4545C8.76042 90.375 8.92803 90.2585 9.05114 90.1051C9.17235 89.9498 9.23295 89.7595 9.23295 89.5341ZM10 85.3714H4.18182L4.18182 83.1442C4.18182 82.7237 4.24811 82.3743 4.38068 82.0959C4.51136 81.8156 4.69034 81.6063 4.91761 81.468C5.14489 81.3279 5.40246 81.2578 5.69034 81.2578C5.92708 81.2578 6.12973 81.3033 6.2983 81.3942C6.46496 81.4851 6.60038 81.6072 6.70455 81.7607C6.80871 81.9141 6.88352 82.0855 6.92898 82.2749H6.9858C6.99716 82.0684 7.06061 81.8705 7.17614 81.6811C7.28977 81.4898 7.45076 81.3336 7.65909 81.2124C7.86742 81.0911 8.11932 81.0305 8.41477 81.0305C8.71591 81.0305 8.98674 81.1035 9.22727 81.2493C9.46591 81.3951 9.65436 81.6148 9.79261 81.9084C9.93087 82.2019 10 82.5713 10 83.0163V85.3714ZM9.11932 84.3175V83.1839C9.11932 82.8014 9.0464 82.5258 8.90057 82.3572C8.75284 82.1868 8.56345 82.1016 8.33239 82.1016C8.16004 82.1016 8.00473 82.1442 7.86648 82.2294C7.72633 82.3146 7.61648 82.4358 7.53693 82.593C7.45549 82.7502 7.41477 82.9377 7.41477 83.1555V84.3175H9.11932ZM6.65625 84.3175V83.2749C6.65625 83.093 6.62311 82.9292 6.55682 82.7834C6.48864 82.6375 6.39299 82.523 6.26989 82.4396C6.14489 82.3544 5.99716 82.3118 5.8267 82.3118C5.60133 82.3118 5.41572 82.3913 5.26989 82.5504C5.12405 82.7076 5.05114 82.9415 5.05114 83.2521V84.3175H6.65625ZM8.16477 77.8778H5.63636V76.8494H10V77.8466H9.22443V77.892C9.46875 77.9905 9.66856 78.1525 9.82386 78.3778C9.97917 78.6013 10.0568 78.8769 10.0568 79.2045C10.0568 79.4905 9.99337 79.7434 9.86648 79.9631C9.73769 80.1809 9.55114 80.3513 9.30682 80.4744C9.06061 80.5975 8.76326 80.6591 8.41477 80.6591H5.63636V79.6307H8.25568C8.5322 79.6307 8.75189 79.5549 8.91477 79.4034C9.07765 79.2519 9.15909 79.053 9.15909 78.8068C9.15909 78.6553 9.12216 78.5085 9.0483 78.3665C8.97443 78.2244 8.86458 78.108 8.71875 78.017C8.57102 77.9242 8.38636 77.8778 8.16477 77.8778ZM4.18182 75.2635H10V76.2919H4.18182V75.2635ZM4.18182 73.6776H10V74.706H4.18182V73.6776Z" fill="white"/>
</svg>
