<svg width="30" height="30" viewBox="0 0 30 30" fill="none" xmlns="http://www.w3.org/2000/svg">
<g clip-path="url(#clip0_8_188)">
<path d="M11.0278 17.5H15.0278M15.0278 17.5H19.0278M15.0278 17.5V13.5M15.0278 17.5V21.5" stroke="#43423D" stroke-width="2.5" stroke-linecap="round" stroke-linejoin="round"/>
<path d="M2.03527 5.06128C1.99945 4.81407 2.09313 4.56681 2.31386 4.42216C3.32282 3.76095 6.78381 2 15.0278 2C23.2719 2 26.7329 3.76094 27.7419 4.42216C27.9625 4.56681 28.0562 4.81407 28.0204 5.06128L25.5567 22.0684C25.3177 23.7187 24.2558 25.1717 22.6854 25.9977L22.2215 26.2416C17.764 28.5861 12.2917 28.5861 7.83416 26.2416L7.37035 25.9977C5.79989 25.1717 4.73803 23.7187 4.49898 22.0684L2.03527 5.06128Z" stroke="#43423D" stroke-width="2.5"/>
<path d="M2.5 5.5C6.07143 9.50003 23.9286 9.49997 27.5 5.5" stroke="#43423D" stroke-width="2.57011"/>
</g>
<defs>
<clipPath id="clip0_8_188">
<rect width="30" height="30" fill="white"/>
</clipPath>
</defs>
</svg>
