<svg width="335" height="646" viewBox="0 0 335 646" fill="none" xmlns="http://www.w3.org/2000/svg">
<g clip-path="url(#clip0_10_55)">
<path d="M106.061 569.727H111.22L118.129 586.591H118.402L125.311 569.727H130.47V593H126.425V577.011H126.209L119.777 592.932H116.754L110.322 576.977H110.107V593H106.061V569.727ZM139.402 593.352C138.296 593.352 137.3 593.155 136.413 592.761C135.535 592.36 134.838 591.769 134.322 590.989C133.815 590.208 133.561 589.246 133.561 588.102C133.561 587.117 133.743 586.303 134.107 585.659C134.47 585.015 134.966 584.5 135.595 584.114C136.224 583.727 136.932 583.436 137.72 583.239C138.516 583.034 139.338 582.886 140.186 582.795C141.209 582.689 142.038 582.595 142.675 582.511C143.311 582.42 143.773 582.284 144.061 582.102C144.357 581.913 144.504 581.621 144.504 581.227V581.159C144.504 580.303 144.25 579.64 143.743 579.17C143.235 578.701 142.504 578.466 141.55 578.466C140.542 578.466 139.743 578.686 139.152 579.125C138.569 579.564 138.175 580.083 137.97 580.682L134.129 580.136C134.432 579.076 134.932 578.189 135.629 577.477C136.326 576.758 137.179 576.22 138.186 575.864C139.194 575.5 140.307 575.318 141.527 575.318C142.368 575.318 143.205 575.417 144.038 575.614C144.872 575.811 145.633 576.136 146.322 576.591C147.012 577.038 147.565 577.648 147.982 578.42C148.406 579.193 148.618 580.159 148.618 581.318V593H144.663V590.602H144.527C144.277 591.087 143.925 591.542 143.47 591.966C143.023 592.383 142.459 592.72 141.777 592.977C141.103 593.227 140.311 593.352 139.402 593.352ZM140.47 590.33C141.296 590.33 142.012 590.167 142.618 589.841C143.224 589.508 143.69 589.068 144.016 588.523C144.349 587.977 144.516 587.383 144.516 586.739V584.682C144.387 584.788 144.167 584.886 143.857 584.977C143.554 585.068 143.213 585.148 142.834 585.216C142.455 585.284 142.08 585.345 141.709 585.398C141.338 585.451 141.016 585.496 140.743 585.534C140.129 585.617 139.58 585.754 139.095 585.943C138.61 586.133 138.228 586.398 137.947 586.739C137.667 587.072 137.527 587.504 137.527 588.034C137.527 588.792 137.804 589.364 138.357 589.75C138.91 590.136 139.614 590.33 140.47 590.33ZM156.368 582.773V593H152.254V575.545H156.186V578.511H156.391C156.792 577.534 157.432 576.758 158.311 576.182C159.197 575.606 160.292 575.318 161.595 575.318C162.8 575.318 163.849 575.576 164.743 576.091C165.644 576.606 166.341 577.352 166.834 578.33C167.334 579.307 167.58 580.492 167.572 581.886V593H163.459V582.523C163.459 581.356 163.156 580.443 162.55 579.784C161.951 579.125 161.122 578.795 160.061 578.795C159.341 578.795 158.701 578.955 158.141 579.273C157.588 579.583 157.152 580.034 156.834 580.625C156.523 581.216 156.368 581.932 156.368 582.773ZM176.277 593.352C175.171 593.352 174.175 593.155 173.288 592.761C172.41 592.36 171.713 591.769 171.197 590.989C170.69 590.208 170.436 589.246 170.436 588.102C170.436 587.117 170.618 586.303 170.982 585.659C171.345 585.015 171.841 584.5 172.47 584.114C173.099 583.727 173.807 583.436 174.595 583.239C175.391 583.034 176.213 582.886 177.061 582.795C178.084 582.689 178.913 582.595 179.55 582.511C180.186 582.42 180.648 582.284 180.936 582.102C181.232 581.913 181.379 581.621 181.379 581.227V581.159C181.379 580.303 181.125 579.64 180.618 579.17C180.11 578.701 179.379 578.466 178.425 578.466C177.417 578.466 176.618 578.686 176.027 579.125C175.444 579.564 175.05 580.083 174.845 580.682L171.004 580.136C171.307 579.076 171.807 578.189 172.504 577.477C173.201 576.758 174.054 576.22 175.061 575.864C176.069 575.5 177.182 575.318 178.402 575.318C179.243 575.318 180.08 575.417 180.913 575.614C181.747 575.811 182.508 576.136 183.197 576.591C183.887 577.038 184.44 577.648 184.857 578.42C185.281 579.193 185.493 580.159 185.493 581.318V593H181.538V590.602H181.402C181.152 591.087 180.8 591.542 180.345 591.966C179.898 592.383 179.334 592.72 178.652 592.977C177.978 593.227 177.186 593.352 176.277 593.352ZM177.345 590.33C178.171 590.33 178.887 590.167 179.493 589.841C180.099 589.508 180.565 589.068 180.891 588.523C181.224 587.977 181.391 587.383 181.391 586.739V584.682C181.262 584.788 181.042 584.886 180.732 584.977C180.429 585.068 180.088 585.148 179.709 585.216C179.33 585.284 178.955 585.345 178.584 585.398C178.213 585.451 177.891 585.496 177.618 585.534C177.004 585.617 176.455 585.754 175.97 585.943C175.485 586.133 175.103 586.398 174.822 586.739C174.542 587.072 174.402 587.504 174.402 588.034C174.402 588.792 174.679 589.364 175.232 589.75C175.785 590.136 176.489 590.33 177.345 590.33ZM196.72 599.909C195.243 599.909 193.974 599.708 192.913 599.307C191.853 598.913 191 598.383 190.357 597.716C189.713 597.049 189.266 596.311 189.016 595.5L192.72 594.602C192.887 594.943 193.129 595.28 193.447 595.614C193.766 595.955 194.194 596.235 194.732 596.455C195.277 596.682 195.963 596.795 196.788 596.795C197.955 596.795 198.921 596.511 199.686 595.943C200.451 595.383 200.834 594.458 200.834 593.17V589.864H200.629C200.417 590.288 200.107 590.723 199.697 591.17C199.296 591.617 198.762 591.992 198.095 592.295C197.436 592.598 196.607 592.75 195.607 592.75C194.266 592.75 193.05 592.436 191.959 591.807C190.875 591.17 190.012 590.223 189.368 588.966C188.732 587.701 188.413 586.117 188.413 584.216C188.413 582.299 188.732 580.682 189.368 579.364C190.012 578.038 190.879 577.034 191.97 576.352C193.061 575.663 194.277 575.318 195.618 575.318C196.641 575.318 197.482 575.492 198.141 575.841C198.807 576.182 199.338 576.595 199.732 577.08C200.125 577.557 200.425 578.008 200.629 578.432H200.857V575.545H204.913V593.284C204.913 594.777 204.557 596.011 203.845 596.989C203.133 597.966 202.16 598.697 200.925 599.182C199.69 599.667 198.288 599.909 196.72 599.909ZM196.754 589.523C197.625 589.523 198.368 589.311 198.982 588.886C199.595 588.462 200.061 587.852 200.379 587.057C200.697 586.261 200.857 585.307 200.857 584.193C200.857 583.095 200.697 582.133 200.379 581.307C200.069 580.481 199.607 579.841 198.993 579.386C198.387 578.924 197.641 578.693 196.754 578.693C195.838 578.693 195.072 578.932 194.459 579.409C193.845 579.886 193.383 580.542 193.072 581.375C192.762 582.201 192.607 583.14 192.607 584.193C192.607 585.261 192.762 586.197 193.072 587C193.391 587.795 193.857 588.417 194.47 588.864C195.091 589.303 195.853 589.523 196.754 589.523ZM216.357 593.341C214.607 593.341 213.095 592.977 211.822 592.25C210.557 591.515 209.584 590.477 208.902 589.136C208.22 587.788 207.879 586.201 207.879 584.375C207.879 582.58 208.22 581.004 208.902 579.648C209.591 578.284 210.554 577.223 211.788 576.466C213.023 575.701 214.474 575.318 216.141 575.318C217.216 575.318 218.232 575.492 219.186 575.841C220.148 576.182 220.997 576.712 221.732 577.432C222.474 578.152 223.057 579.068 223.482 580.182C223.906 581.288 224.118 582.606 224.118 584.136V585.398H209.811V582.625H220.175C220.167 581.837 219.997 581.136 219.663 580.523C219.33 579.902 218.864 579.413 218.266 579.057C217.675 578.701 216.985 578.523 216.197 578.523C215.357 578.523 214.618 578.727 213.982 579.136C213.345 579.538 212.849 580.068 212.493 580.727C212.144 581.379 211.966 582.095 211.959 582.875V585.295C211.959 586.311 212.144 587.182 212.516 587.909C212.887 588.629 213.406 589.182 214.072 589.568C214.739 589.947 215.519 590.136 216.413 590.136C217.012 590.136 217.554 590.053 218.038 589.886C218.523 589.712 218.944 589.458 219.3 589.125C219.656 588.792 219.925 588.379 220.107 587.886L223.947 588.318C223.705 589.333 223.243 590.22 222.561 590.977C221.887 591.727 221.023 592.311 219.97 592.727C218.917 593.136 217.713 593.341 216.357 593.341ZM227.098 593V575.545H231.087V578.455H231.268C231.587 577.447 232.132 576.67 232.905 576.125C233.685 575.572 234.575 575.295 235.575 575.295C235.803 575.295 236.056 575.307 236.337 575.33C236.625 575.345 236.863 575.371 237.053 575.409V579.193C236.878 579.133 236.602 579.08 236.223 579.034C235.852 578.981 235.492 578.955 235.143 578.955C234.393 578.955 233.719 579.117 233.121 579.443C232.53 579.761 232.064 580.205 231.723 580.773C231.382 581.341 231.212 581.996 231.212 582.739V593H227.098Z" fill="#87E963"/>
<path d="M114.391 527.724H109.078C108.927 526.853 108.648 526.081 108.24 525.409C107.833 524.727 107.327 524.15 106.721 523.676C106.114 523.203 105.423 522.848 104.647 522.611C103.88 522.365 103.051 522.241 102.161 522.241C100.579 522.241 99.1779 522.639 97.9563 523.435C96.7347 524.221 95.7783 525.376 95.087 526.901C94.3957 528.416 94.0501 530.267 94.0501 532.455C94.0501 534.68 94.3957 536.555 95.087 538.08C95.7878 539.595 96.7442 540.741 97.9563 541.517C99.1779 542.284 100.575 542.668 102.147 542.668C103.018 542.668 103.832 542.554 104.59 542.327C105.357 542.09 106.043 541.744 106.65 541.29C107.265 540.835 107.781 540.277 108.198 539.614C108.624 538.951 108.917 538.193 109.078 537.341L114.391 537.369C114.192 538.752 113.761 540.049 113.098 541.261C112.445 542.473 111.588 543.544 110.527 544.472C109.467 545.39 108.226 546.11 106.806 546.631C105.385 547.142 103.809 547.398 102.076 547.398C99.5188 547.398 97.2366 546.806 95.229 545.622C93.2215 544.438 91.64 542.729 90.4847 540.494C89.3294 538.259 88.7518 535.58 88.7518 532.455C88.7518 529.32 89.3342 526.64 90.4989 524.415C91.6637 522.18 93.2499 520.471 95.2575 519.287C97.265 518.103 99.5378 517.511 102.076 517.511C103.695 517.511 105.201 517.739 106.593 518.193C107.985 518.648 109.225 519.315 110.314 520.196C111.403 521.067 112.298 522.137 112.999 523.406C113.709 524.666 114.173 526.105 114.391 527.724ZM124.768 547.44C123.386 547.44 122.14 547.194 121.032 546.702C119.934 546.2 119.063 545.461 118.419 544.486C117.784 543.51 117.467 542.308 117.467 540.878C117.467 539.647 117.694 538.629 118.149 537.824C118.603 537.019 119.224 536.375 120.01 535.892C120.796 535.409 121.681 535.045 122.666 534.798C123.66 534.543 124.688 534.358 125.748 534.244C127.027 534.112 128.064 533.993 128.859 533.889C129.654 533.776 130.232 533.605 130.592 533.378C130.961 533.141 131.146 532.777 131.146 532.284V532.199C131.146 531.129 130.829 530.3 130.194 529.713C129.56 529.126 128.646 528.832 127.453 528.832C126.193 528.832 125.194 529.107 124.456 529.656C123.726 530.205 123.234 530.854 122.978 531.602L118.177 530.92C118.556 529.595 119.181 528.487 120.052 527.597C120.923 526.697 121.989 526.025 123.248 525.58C124.508 525.125 125.9 524.898 127.424 524.898C128.475 524.898 129.522 525.021 130.564 525.267C131.605 525.513 132.557 525.92 133.419 526.489C134.28 527.047 134.972 527.81 135.493 528.776C136.023 529.741 136.288 530.949 136.288 532.398V547H131.345V544.003H131.174C130.862 544.609 130.422 545.177 129.853 545.707C129.295 546.228 128.589 546.65 127.737 546.972C126.894 547.284 125.904 547.44 124.768 547.44ZM126.103 543.662C127.136 543.662 128.03 543.458 128.788 543.051C129.546 542.634 130.128 542.085 130.535 541.403C130.952 540.722 131.16 539.978 131.16 539.173V536.602C130.999 536.735 130.725 536.858 130.336 536.972C129.958 537.085 129.531 537.185 129.058 537.27C128.584 537.355 128.116 537.431 127.652 537.497C127.188 537.563 126.785 537.62 126.444 537.668C125.677 537.772 124.991 537.942 124.385 538.179C123.779 538.416 123.3 538.747 122.95 539.173C122.6 539.59 122.424 540.13 122.424 540.793C122.424 541.74 122.77 542.455 123.461 542.938C124.153 543.42 125.033 543.662 126.103 543.662ZM152.01 525.182V529.159H139.112V525.182H152.01ZM142.336 547V523.122C142.336 521.654 142.639 520.433 143.245 519.457C143.861 518.482 144.685 517.753 145.717 517.27C146.749 516.787 147.895 516.545 149.154 516.545C150.045 516.545 150.835 516.616 151.527 516.759C152.218 516.901 152.729 517.028 153.061 517.142L152.038 521.119C151.82 521.053 151.546 520.987 151.214 520.92C150.883 520.845 150.513 520.807 150.106 520.807C149.15 520.807 148.473 521.039 148.075 521.503C147.687 521.957 147.493 522.611 147.493 523.463V547H142.336ZM166.588 525.182V529.159H153.69V525.182H166.588ZM156.914 547V523.122C156.914 521.654 157.217 520.433 157.824 519.457C158.439 518.482 159.263 517.753 160.295 517.27C161.327 516.787 162.473 516.545 163.733 516.545C164.623 516.545 165.413 516.616 166.105 516.759C166.796 516.901 167.307 517.028 167.639 517.142L166.616 521.119C166.398 521.053 166.124 520.987 165.792 520.92C165.461 520.845 165.092 520.807 164.684 520.807C163.728 520.807 163.051 521.039 162.653 521.503C162.265 521.957 162.071 522.611 162.071 523.463V547H156.914ZM178.953 547.426C176.766 547.426 174.877 546.972 173.286 546.062C171.704 545.144 170.488 543.847 169.635 542.17C168.783 540.485 168.357 538.501 168.357 536.219C168.357 533.974 168.783 532.005 169.635 530.31C170.497 528.605 171.7 527.279 173.243 526.332C174.787 525.376 176.6 524.898 178.684 524.898C180.028 524.898 181.297 525.116 182.49 525.551C183.693 525.977 184.754 526.64 185.672 527.54C186.6 528.439 187.329 529.585 187.86 530.977C188.39 532.36 188.655 534.008 188.655 535.92V537.497H170.772V534.031H183.726C183.717 533.046 183.504 532.17 183.087 531.403C182.67 530.627 182.088 530.016 181.34 529.571C180.601 529.126 179.739 528.903 178.755 528.903C177.703 528.903 176.78 529.159 175.985 529.67C175.189 530.172 174.569 530.835 174.124 531.659C173.688 532.473 173.466 533.368 173.456 534.344V537.369C173.456 538.638 173.688 539.727 174.152 540.636C174.616 541.536 175.265 542.227 176.098 542.71C176.932 543.184 177.907 543.42 179.025 543.42C179.773 543.42 180.45 543.316 181.056 543.108C181.662 542.89 182.187 542.573 182.632 542.156C183.078 541.74 183.414 541.223 183.641 540.608L188.442 541.148C188.139 542.417 187.561 543.525 186.709 544.472C185.866 545.409 184.787 546.138 183.471 546.659C182.154 547.17 180.649 547.426 178.953 547.426ZM192.505 547V525.182H197.647V547H192.505ZM195.091 522.085C194.276 522.085 193.575 521.815 192.988 521.276C192.401 520.726 192.108 520.068 192.108 519.301C192.108 518.525 192.401 517.866 192.988 517.327C193.575 516.777 194.276 516.503 195.091 516.503C195.914 516.503 196.615 516.777 197.193 517.327C197.78 517.866 198.074 518.525 198.074 519.301C198.074 520.068 197.78 520.726 197.193 521.276C196.615 521.815 195.914 522.085 195.091 522.085ZM207.577 534.216V547H202.435V525.182H207.35V528.889H207.605C208.107 527.668 208.908 526.697 210.006 525.977C211.114 525.258 212.482 524.898 214.111 524.898C215.617 524.898 216.928 525.22 218.046 525.864C219.173 526.508 220.044 527.44 220.659 528.662C221.284 529.884 221.592 531.366 221.583 533.108V547H216.441V533.903C216.441 532.445 216.062 531.304 215.304 530.48C214.556 529.656 213.519 529.244 212.194 529.244C211.294 529.244 210.494 529.443 209.793 529.841C209.102 530.229 208.557 530.793 208.159 531.531C207.771 532.27 207.577 533.165 207.577 534.216ZM235.969 547.426C233.782 547.426 231.892 546.972 230.301 546.062C228.72 545.144 227.503 543.847 226.651 542.17C225.799 540.485 225.373 538.501 225.373 536.219C225.373 533.974 225.799 532.005 226.651 530.31C227.513 528.605 228.715 527.279 230.259 526.332C231.802 525.376 233.616 524.898 235.699 524.898C237.044 524.898 238.313 525.116 239.506 525.551C240.709 525.977 241.769 526.64 242.688 527.54C243.616 528.439 244.345 529.585 244.875 530.977C245.406 532.36 245.671 534.008 245.671 535.92V537.497H227.787V534.031H240.742C240.732 533.046 240.519 532.17 240.103 531.403C239.686 530.627 239.104 530.016 238.355 529.571C237.617 529.126 236.755 528.903 235.77 528.903C234.719 528.903 233.796 529.159 233 529.67C232.205 530.172 231.585 530.835 231.14 531.659C230.704 532.473 230.481 533.368 230.472 534.344V537.369C230.472 538.638 230.704 539.727 231.168 540.636C231.632 541.536 232.281 542.227 233.114 542.71C233.947 543.184 234.923 543.42 236.04 543.42C236.788 543.42 237.465 543.316 238.071 543.108C238.677 542.89 239.203 542.573 239.648 542.156C240.093 541.74 240.429 541.223 240.657 540.608L245.458 541.148C245.155 542.417 244.577 543.525 243.725 544.472C242.882 545.409 241.802 546.138 240.486 546.659C239.17 547.17 237.664 547.426 235.969 547.426Z" fill="#F6F2F0"/>
</g>
<path d="M85.7643 81.1639H116.612V224.138C116.612 304.483 113.129 388.537 79.545 451.166C74.072 440.041 61.6333 423.56 53.9214 415.731C82.5303 362.167 85.7643 292.123 85.7643 223.726V81.1639ZM162.138 98.8812H192.488V407.491H162.138V98.8812ZM238.013 80.7519H269.607V446.633H238.013V80.7519Z" fill="#87E963"/>
<path d="M85.7642 81.1638V55.412H70.2159V81.1638H85.7642ZM116.612 81.1638H132.16V55.412H116.612V81.1638ZM79.5448 451.166L67.4912 467.432L79.0347 490.897L91.17 468.266L79.5448 451.166ZM53.9212 415.731L42.2756 398.669L30 421.651L45.7963 437.687L53.9212 415.731ZM162.137 98.8811V73.1292H146.589V98.8811H162.137ZM192.488 98.8811H208.036V73.1292H192.488V98.8811ZM192.488 407.49V433.242H208.036V407.49H192.488ZM162.137 407.49H146.589V433.242H162.137V407.49ZM238.013 80.7518V55H222.465V80.7518H238.013ZM269.607 80.7518H285.156V55H269.607V80.7518ZM269.607 446.633V472.385H285.156V446.633H269.607ZM238.013 446.633H222.465V472.385H238.013V446.633ZM85.7642 81.1638H116.612V55.412H85.7642V81.1638ZM116.612 81.1638V224.138H132.16V81.1638H116.612ZM116.612 224.138C116.612 304.779 108.832 396.55 79.5448 451.166L91.17 468.266C129.051 397.625 132.16 304.187 132.16 224.138H116.612ZM79.5448 451.166C72.6068 437.063 62.5513 424.492 53.9212 415.731L45.7963 437.687C52.5901 444.583 63.4833 459.285 67.4912 467.432L79.5448 451.166ZM53.9212 415.731C86.7509 354.265 85.7642 292.138 85.7642 223.726H70.2159C70.2159 292.107 66.6638 353.007 42.2756 398.669L53.9212 415.731ZM85.7642 223.726V81.1638H70.2159V223.726H85.7642ZM162.137 98.8811H192.488V73.1292H162.137V98.8811ZM192.488 98.8811V407.49H208.036V98.8811H192.488ZM192.488 407.49H162.137V433.242H192.488V407.49ZM162.137 407.49V98.8811H146.589V407.49H162.137ZM238.013 80.7518H269.607V55H238.013V80.7518ZM269.607 80.7518V446.633H285.156V80.7518H269.607ZM269.607 446.633H238.013V472.385H269.607V446.633ZM238.013 446.633V80.7518H222.465V446.633H238.013Z" fill="#43423D"/>
<defs>
<clipPath id="clip0_10_55">
<rect width="216" height="119" fill="white" transform="translate(59 491)"/>
</clipPath>
</defs>
</svg>
