<svg width="46" height="110" viewBox="0 0 46 110" fill="none" xmlns="http://www.w3.org/2000/svg">
<path d="M13 3C13 1.89543 13.8954 1 15 1H31C32.1046 1 33 1.89543 33 3V10L33.0823 10.6587C33.6745 15.396 35.9418 19.7653 39.4744 22.9768L42.0403 25.3093C43.9253 27.023 45 29.4524 45 32V32V103C45 105.209 43.2092 107 41 107H5C2.79086 107 1 105.209 1 103V32V32C1 29.4524 2.07469 27.023 3.95975 25.3093L6.52558 22.9768C10.0582 19.7653 12.3255 15.396 12.9177 10.6587L13 10V3Z" fill="#ABABAB"/>
<path d="M41 107C41 108.105 40.1046 109 39 109L7 109C5.89543 109 5 108.105 5 107V107L41 107V107Z" fill="#ABABAB"/>
<path d="M14.7619 12.0716C14.9201 11.3593 15 10.6319 15 9.90228V5C15 3.89543 15.8954 3 17 3H23H29C30.1046 3 31 3.89543 31 5V9.24364C31 10.411 31.1278 11.5749 31.381 12.7145L31.6192 13.7863C32.5173 17.8278 34.6539 21.4885 37.7313 24.2582L40.0268 26.3241C41.9193 28.0274 43 30.4539 43 33V33H3V33C3 30.4539 4.08066 28.0274 5.97318 26.3241L8.2687 24.2582C11.3461 21.4885 13.4827 17.8278 14.3808 13.7863L14.7619 12.0716Z" fill="#43423D"/>
<path d="M3 33H43V102C43 103.657 41.6569 105 40 105H6C4.34315 105 3 103.657 3 102V33Z" fill="#43423D"/>
<path d="M23 97L20 37H26L23 97Z" fill="#87E963"/>
<path d="M32 97L29 37H35L32 97Z" fill="#87E963"/>
<path d="M14 97L11 37H17L14 97Z" fill="#87E963"/>
</svg>
