<svg width="46" height="110" viewBox="0 0 46 110" fill="none" xmlns="http://www.w3.org/2000/svg">
<rect x="1" y="3" width="44" height="104" rx="4" fill="#ABABAB"/>
<path d="M8 2.5C8 1.67157 8.67157 1 9.5 1H36.5C37.3284 1 38 1.67157 38 2.5V4H8V2.5Z" fill="#ABABAB"/>
<path d="M41 107C41 108.105 40.1046 109 39 109L7 109C5.89543 109 5 108.105 5 107V107L41 107V107Z" fill="#ABABAB"/>
<rect x="3" y="5" width="40" height="100" rx="3" fill="#EAEAEA"/>
<path d="M3 8C3 6.34315 4.34315 5 6 5H33L23 55H3V8Z" fill="#1F5CD2"/>
<path d="M43 102C43 103.657 41.6569 105 40 105H13L23 55H43V102Z" fill="#1F5CD2"/>
<circle cx="23" cy="55" r="6" fill="#FFE500"/>
<path d="M43 94H15L15.5066 92H43V94Z" fill="#D9D9D9"/>
<path d="M3 92H15.5951L15.1979 94H3V92Z" fill="#1F5CD2"/>
<path d="M12 53.25H19C19.9665 53.25 20.75 54.0335 20.75 55V56C20.75 56.9665 19.9665 57.75 19 57.75H12C11.0335 57.75 10.25 56.9665 10.25 56V55C10.25 54.0335 11.0335 53.25 12 53.25Z" fill="#FF234B" stroke="#FFE500" stroke-width="0.5"/>
<path d="M27 53.25H34C34.9665 53.25 35.75 54.0335 35.75 55V56C35.75 56.9665 34.9665 57.75 34 57.75H27C26.0335 57.75 25.25 56.9665 25.25 56V55C25.25 54.0335 26.0335 53.25 27 53.25Z" fill="#FF234B" stroke="#FFE500" stroke-width="0.5"/>
<path d="M5.96538 45V37.7273H8.69265C9.25136 37.7273 9.72011 37.8243 10.0989 38.0185C10.4801 38.2126 10.7677 38.4848 10.9618 38.8352C11.1583 39.1832 11.2566 39.5893 11.2566 40.0533C11.2566 40.5196 11.1571 40.9245 10.9583 41.2678C10.7618 41.6087 10.4718 41.8726 10.0882 42.0597C9.70472 42.2443 9.23361 42.3366 8.67489 42.3366H6.73242V41.2429H8.49734C8.82404 41.2429 9.09156 41.1979 9.29989 41.108C9.50823 41.0156 9.66211 40.8819 9.76154 40.7067C9.86334 40.5291 9.91424 40.3113 9.91424 40.0533C9.91424 39.7952 9.86334 39.575 9.76154 39.3928C9.65974 39.2081 9.50468 39.0684 9.29634 38.9737C9.08801 38.8767 8.81931 38.8281 8.49023 38.8281H7.28285V45H5.96538ZM9.72248 41.7045L11.5229 45H10.0527L8.28427 41.7045H9.72248ZM14.2491 45.1065C13.7022 45.1065 13.2299 44.9929 12.8322 44.7656C12.4368 44.536 12.1326 44.2116 11.9196 43.7926C11.7065 43.3712 11.6 42.8752 11.6 42.3047C11.6 41.7436 11.7065 41.2512 11.9196 40.8274C12.135 40.4013 12.4357 40.0698 12.8216 39.8331C13.2074 39.594 13.6608 39.4744 14.1816 39.4744C14.5178 39.4744 14.835 39.5289 15.1333 39.6378C15.434 39.7443 15.6992 39.91 15.9288 40.1349C16.1608 40.3598 16.3431 40.6463 16.4757 40.9943C16.6083 41.34 16.6745 41.7519 16.6745 42.2301V42.6243H12.2037V41.7578H15.4423C15.4399 41.5116 15.3867 41.2926 15.2825 41.1009C15.1783 40.9067 15.0327 40.754 14.8457 40.6428C14.661 40.5315 14.4456 40.4759 14.1994 40.4759C13.9366 40.4759 13.7058 40.5398 13.5069 40.6676C13.3081 40.7931 13.153 40.9588 13.0417 41.1648C12.9328 41.3684 12.8772 41.5921 12.8748 41.8359V42.5923C12.8748 42.9096 12.9328 43.1818 13.0488 43.4091C13.1648 43.634 13.327 43.8068 13.5353 43.9276C13.7437 44.0459 13.9875 44.1051 14.2669 44.1051C14.4539 44.1051 14.6232 44.0791 14.7747 44.027C14.9262 43.9725 15.0576 43.8932 15.1689 43.7891C15.2801 43.6849 15.3642 43.5559 15.421 43.402L16.6213 43.5369C16.5455 43.8542 16.4011 44.1312 16.188 44.3679C15.9773 44.6023 15.7074 44.7846 15.3784 44.9148C15.0493 45.0426 14.6729 45.1065 14.2491 45.1065ZM19.2862 45.0959C18.8577 45.0959 18.4742 44.9858 18.1357 44.7656C17.7971 44.5455 17.5296 44.2259 17.3331 43.8068C17.1366 43.3878 17.0384 42.8788 17.0384 42.2798C17.0384 41.6738 17.1378 41.1624 17.3366 40.7457C17.5379 40.3267 17.8089 40.0107 18.1499 39.7976C18.4908 39.5821 18.8707 39.4744 19.2898 39.4744C19.6094 39.4744 19.8722 39.5289 20.0781 39.6378C20.2841 39.7443 20.4474 39.8733 20.5682 40.0249C20.6889 40.174 20.7824 40.3149 20.8487 40.4474H20.902V37.7273H22.1911V45H20.9268V44.1406H20.8487C20.7824 44.2732 20.6866 44.4141 20.5611 44.5632C20.4356 44.71 20.2699 44.8355 20.0639 44.9396C19.858 45.0438 19.5987 45.0959 19.2862 45.0959ZM19.6449 44.0412C19.9171 44.0412 20.1491 43.9678 20.3409 43.821C20.5327 43.6719 20.6783 43.4647 20.7777 43.1996C20.8771 42.9344 20.9268 42.6255 20.9268 42.2727C20.9268 41.92 20.8771 41.6134 20.7777 41.353C20.6806 41.0926 20.5362 40.8902 20.3445 40.7457C20.1551 40.6013 19.9219 40.5291 19.6449 40.5291C19.3584 40.5291 19.1193 40.6037 18.9276 40.7528C18.7358 40.902 18.5914 41.108 18.4943 41.3707C18.3973 41.6335 18.3487 41.9342 18.3487 42.2727C18.3487 42.6136 18.3973 42.9179 18.4943 43.1854C18.5938 43.4505 18.7393 43.66 18.9311 43.8139C19.1252 43.9654 19.3632 44.0412 19.6449 44.0412ZM25.0982 45V37.7273H27.8823C28.4078 37.7273 28.8446 37.8101 29.1926 37.9759C29.543 38.1392 29.8046 38.3629 29.9775 38.647C30.1526 38.9311 30.2402 39.2531 30.2402 39.6129C30.2402 39.9089 30.1834 40.1622 30.0698 40.3729C29.9561 40.5812 29.8034 40.7505 29.6117 40.8807C29.4199 41.0109 29.2057 41.1044 28.9689 41.1612V41.2322C29.227 41.2464 29.4744 41.3258 29.7111 41.4702C29.9502 41.6122 30.1455 41.8134 30.2971 42.0739C30.4486 42.3343 30.5243 42.6491 30.5243 43.0185C30.5243 43.3949 30.4332 43.7334 30.2509 44.0341C30.0686 44.3324 29.794 44.5679 29.427 44.7408C29.0601 44.9136 28.5984 45 28.0421 45H25.0982ZM26.4157 43.8991H27.8326C28.3108 43.8991 28.6552 43.808 28.8659 43.6257C29.079 43.4411 29.1855 43.2043 29.1855 42.9155C29.1855 42.7 29.1323 42.5059 29.0257 42.3331C28.9192 42.1579 28.7677 42.0206 28.5712 41.9212C28.3747 41.8194 28.1403 41.7685 27.8681 41.7685H26.4157V43.8991ZM26.4157 40.8203H27.7189C27.9462 40.8203 28.151 40.7789 28.3333 40.696C28.5156 40.6108 28.6588 40.4912 28.763 40.3374C28.8695 40.1811 28.9228 39.9964 28.9228 39.7834C28.9228 39.5017 28.8233 39.2696 28.6245 39.0874C28.428 38.9051 28.1356 38.8139 27.7473 38.8139H26.4157V40.8203ZM34.5902 42.706V39.5455H35.8757V45H34.6293V44.0305H34.5724C34.4493 44.3359 34.2469 44.5857 33.9652 44.7798C33.6858 44.974 33.3414 45.071 32.9318 45.071C32.5743 45.071 32.2583 44.9917 31.9837 44.8331C31.7114 44.6721 31.4983 44.4389 31.3445 44.1335C31.1906 43.8258 31.1136 43.4541 31.1136 43.0185V39.5455H32.3991V42.8196C32.3991 43.1652 32.4938 43.4399 32.6832 43.6435C32.8726 43.8471 33.1212 43.9489 33.429 43.9489C33.6184 43.9489 33.8018 43.9027 33.9794 43.8104C34.157 43.718 34.3026 43.5807 34.4162 43.3984C34.5322 43.2138 34.5902 42.983 34.5902 42.706ZM37.9831 37.7273V45H36.6976V37.7273H37.9831ZM40.0906 37.7273V45H38.805V37.7273H40.0906Z" fill="#FF234B"/>
</svg>
