<svg width="46" height="110" viewBox="0 0 46 110" fill="none" xmlns="http://www.w3.org/2000/svg">
<rect x="1" y="3" width="44" height="104" rx="4" fill="#ABABAB"/>
<path d="M8 2.5C8 1.67157 8.67157 1 9.5 1H36.5C37.3284 1 38 1.67157 38 2.5V4H8V2.5Z" fill="#ABABAB"/>
<path d="M41 107C41 108.105 40.1046 109 39 109L7 109C5.89543 109 5 108.105 5 107V107L41 107V107Z" fill="#ABABAB"/>
<rect x="3" y="5" width="40" height="100" rx="3" fill="#C623FF"/>
<path d="M10 5H40C41.6568 5 43 6.34315 43 8V9C43 9 32.5 11.5 27 15.5C24.7667 17.1242 20 23.5 17.5 24.5C16.4122 24.9351 14.5 25.25 13 24.5C11.1428 23.5714 9.74832 17.5596 9.03416 13.7218C8.63945 11.6007 8.79264 9.427 9.36031 7.34551L10 5Z" fill="white"/>
<path d="M5.92876 49V41.8H8.62876C9.18189 41.8 9.64595 41.9031 10.0209 42.1094C10.3983 42.3156 10.6831 42.5992 10.8752 42.9602C11.0698 43.3187 11.167 43.7266 11.167 44.1836C11.167 44.6453 11.0698 45.0555 10.8752 45.4141C10.6807 45.7727 10.3936 46.0551 10.0139 46.2613C9.63423 46.4652 9.16665 46.5672 8.61118 46.5672H6.82173V45.4949H8.4354C8.75884 45.4949 9.02368 45.4387 9.22993 45.3262C9.43618 45.2137 9.58853 45.059 9.68696 44.8621C9.78775 44.6652 9.83814 44.4391 9.83814 44.1836C9.83814 43.9281 9.78775 43.7031 9.68696 43.5086C9.58853 43.3141 9.43501 43.1629 9.22642 43.0551C9.02017 42.9449 8.75415 42.8898 8.42837 42.8898H7.23306V49H5.92876ZM16.3386 41.8H17.6429V46.5039C17.6429 47.0195 17.521 47.473 17.2773 47.8645C17.0359 48.2559 16.696 48.5617 16.2578 48.782C15.8195 49 15.3074 49.109 14.7214 49.109C14.1332 49.109 13.6199 49 13.1816 48.782C12.7433 48.5617 12.4035 48.2559 12.1621 47.8645C11.9207 47.473 11.8 47.0195 11.8 46.5039V41.8H13.1042V46.3949C13.1042 46.6949 13.1699 46.9621 13.3011 47.1965C13.4347 47.4309 13.6222 47.6148 13.8636 47.7484C14.105 47.8797 14.391 47.9453 14.7214 47.9453C15.0519 47.9453 15.3378 47.8797 15.5792 47.7484C15.823 47.6148 16.0105 47.4309 16.1417 47.1965C16.273 46.9621 16.3386 46.6949 16.3386 46.3949V41.8ZM18.5606 49V41.8H21.2606C21.8137 41.8 22.2778 41.8961 22.6528 42.0883C23.0301 42.2805 23.3149 42.55 23.5071 42.8969C23.7016 43.2414 23.7989 43.6434 23.7989 44.1027C23.7989 44.5645 23.7004 44.9652 23.5036 45.3051C23.309 45.6426 23.0219 45.9039 22.6422 46.0891C22.2626 46.2719 21.7961 46.3633 21.243 46.3633H19.32V45.2805H21.0672C21.3907 45.2805 21.6555 45.2359 21.8618 45.1469C22.068 45.0555 22.2204 44.923 22.3188 44.7496C22.4196 44.5738 22.47 44.3582 22.47 44.1027C22.47 43.8473 22.4196 43.6293 22.3188 43.4488C22.218 43.266 22.0645 43.1277 21.8583 43.034C21.652 42.9379 21.386 42.8898 21.0602 42.8898H19.8649V49H18.5606ZM22.2801 45.7375L24.0626 49H22.6071L20.8563 45.7375H22.2801ZM24.4995 49V41.8H27.1995C27.7526 41.8 28.2167 41.9031 28.5917 42.1094C28.969 42.3156 29.2538 42.5992 29.4459 42.9602C29.6405 43.3187 29.7377 43.7266 29.7377 44.1836C29.7377 44.6453 29.6405 45.0555 29.4459 45.4141C29.2514 45.7727 28.9643 46.0551 28.5846 46.2613C28.2049 46.4652 27.7374 46.5672 27.1819 46.5672H25.3924V45.4949H27.0061C27.3295 45.4949 27.5944 45.4387 27.8006 45.3262C28.0069 45.2137 28.1592 45.059 28.2577 44.8621C28.3584 44.6652 28.4088 44.4391 28.4088 44.1836C28.4088 43.9281 28.3584 43.7031 28.2577 43.5086C28.1592 43.3141 28.0057 43.1629 27.7971 43.0551C27.5909 42.9449 27.3249 42.8898 26.9991 42.8898H25.8038V49H24.4995ZM30.3707 49V41.8H31.675V47.9066H34.846V49H30.3707ZM35.4781 49V41.8H40.1609V42.8934H36.7824V44.848H39.9183V45.9414H36.7824V47.9066H40.189V49H35.4781Z" fill="#C623FF"/>
<path d="M5.92876 49H5.42876V49.5H5.92876V49ZM5.92876 41.8V41.3H5.42876V41.8H5.92876ZM10.0209 42.1094L9.77999 42.5475L9.78114 42.5481L10.0209 42.1094ZM10.8752 42.9602L10.4339 43.1952L10.4358 43.1986L10.8752 42.9602ZM10.8752 45.4141L11.3147 45.6525L11.3147 45.6525L10.8752 45.4141ZM10.0139 46.2613L10.2505 46.7018L10.2526 46.7007L10.0139 46.2613ZM6.82173 46.5672H6.32173V47.0672H6.82173V46.5672ZM6.82173 45.4949V44.9949H6.32173V45.4949H6.82173ZM9.22993 45.3262L9.46936 45.7651L9.46936 45.7651L9.22993 45.3262ZM9.68696 44.8621L9.24187 44.6343L9.23975 44.6385L9.68696 44.8621ZM9.68696 43.5086L9.24081 43.7344L9.24301 43.7386L9.68696 43.5086ZM9.22642 43.0551L8.99084 43.4962L8.99684 43.4993L9.22642 43.0551ZM7.23306 42.8898V42.3898H6.73306V42.8898H7.23306ZM7.23306 49V49.5H7.73306V49H7.23306ZM6.42876 49V41.8H5.42876V49H6.42876ZM5.92876 42.3H8.62876V41.3H5.92876V42.3ZM8.62876 42.3C9.12161 42.3 9.4973 42.392 9.77999 42.5475L10.2619 41.6713C9.7946 41.4142 9.24216 41.3 8.62876 41.3V42.3ZM9.78114 42.5481C10.0775 42.7101 10.29 42.9249 10.4339 43.1952L11.3166 42.7252C11.0761 42.2735 10.7191 41.9211 10.2608 41.6706L9.78114 42.5481ZM10.4358 43.1986C10.586 43.4755 10.667 43.7997 10.667 44.1836H11.667C11.667 43.6535 11.5536 43.162 11.3147 42.7217L10.4358 43.1986ZM10.667 44.1836C10.667 44.5732 10.5856 44.8994 10.4358 45.1756L11.3147 45.6525C11.554 45.2115 11.667 44.7175 11.667 44.1836H10.667ZM10.4358 45.1756C10.2901 45.4441 10.0752 45.659 9.77525 45.822L10.2526 46.7007C10.712 46.4512 11.0713 46.1012 11.3147 45.6525L10.4358 45.1756ZM9.77735 45.8208C9.4884 45.976 9.10728 46.0672 8.61118 46.0672V47.0672C9.22602 47.0672 9.78006 46.9545 10.2505 46.7018L9.77735 45.8208ZM8.61118 46.0672H6.82173V47.0672H8.61118V46.0672ZM7.32173 46.5672V45.4949H6.32173V46.5672H7.32173ZM6.82173 45.9949H8.4354V44.9949H6.82173V45.9949ZM8.4354 45.9949C8.81251 45.9949 9.16721 45.9299 9.46936 45.7651L8.99051 44.8872C8.88016 44.9474 8.70516 44.9949 8.4354 44.9949V45.9949ZM9.46936 45.7651C9.75886 45.6072 9.98695 45.3802 10.1342 45.0857L9.23975 44.6385C9.19011 44.7378 9.1135 44.8201 8.99051 44.8872L9.46936 45.7651ZM10.132 45.0899C10.2741 44.8123 10.3381 44.506 10.3381 44.1836H9.33814C9.33814 44.3722 9.30135 44.5181 9.24189 44.6343L10.132 45.0899ZM10.3381 44.1836C10.3381 43.8614 10.2742 43.5551 10.1309 43.2786L9.24301 43.7386C9.3013 43.8511 9.33814 43.9949 9.33814 44.1836H10.3381ZM10.1331 43.2828C9.9835 42.9872 9.75033 42.763 9.45599 42.6109L8.99684 43.4993C9.11969 43.5628 9.19356 43.6409 9.24083 43.7343L10.1331 43.2828ZM9.46197 42.614C9.16037 42.453 8.80576 42.3898 8.42837 42.3898V43.3898C8.70255 43.3898 8.87996 43.4369 8.99086 43.4961L9.46197 42.614ZM8.42837 42.3898H7.23306V43.3898H8.42837V42.3898ZM6.73306 42.8898V49H7.73306V42.8898H6.73306ZM7.23306 48.5H5.92876V49.5H7.23306V48.5ZM16.3386 41.8V41.3H15.8386V41.8H16.3386ZM17.6429 41.8H18.1429V41.3H17.6429V41.8ZM17.2773 47.8645L16.8529 47.6001L16.8517 47.602L17.2773 47.8645ZM16.2578 48.782L16.4804 49.2297L16.4823 49.2288L16.2578 48.782ZM13.1816 48.782L12.957 49.2288L12.9589 49.2297L13.1816 48.782ZM12.1621 47.8645L12.5876 47.602L12.5876 47.602L12.1621 47.8645ZM11.8 41.8V41.3H11.3V41.8H11.8ZM13.1042 41.8H13.6042V41.3H13.1042V41.8ZM13.3011 47.1965L12.8649 47.4408L12.8667 47.4441L13.3011 47.1965ZM13.8636 47.7484L13.6215 48.1859L13.6248 48.1877L13.8636 47.7484ZM15.5792 47.7484L15.8181 48.1877L15.8196 48.1869L15.5792 47.7484ZM16.1417 47.1965L16.578 47.4408L16.578 47.4408L16.1417 47.1965ZM16.3386 42.3H17.6429V41.3H16.3386V42.3ZM17.1429 41.8V46.5039H18.1429V41.8H17.1429ZM17.1429 46.5039C17.1429 46.9375 17.0415 47.2972 16.8529 47.6001L17.7017 48.1288C18.0006 47.6489 18.1429 47.1016 18.1429 46.5039H17.1429ZM16.8517 47.602C16.6622 47.9092 16.3945 48.1537 16.0332 48.3353L16.4823 49.2288C16.9976 48.9697 17.4095 48.6025 17.7029 48.1269L16.8517 47.602ZM16.0351 48.3343C15.6784 48.5118 15.2452 48.609 14.7214 48.609V49.609C15.3696 49.609 15.9606 49.4882 16.4804 49.2297L16.0351 48.3343ZM14.7214 48.609C14.195 48.609 13.7607 48.5116 13.4042 48.3343L12.9589 49.2297C13.479 49.4884 14.0713 49.609 14.7214 49.609V48.609ZM13.4062 48.3353C13.0449 48.1537 12.7771 47.9092 12.5876 47.602L11.7365 48.1269C12.0298 48.6025 12.4417 48.9697 12.957 49.2288L13.4062 48.3353ZM12.5876 47.602C12.4006 47.2988 12.3 46.9384 12.3 46.5039H11.3C11.3 47.1007 11.4407 47.6473 11.7365 48.1269L12.5876 47.602ZM12.3 46.5039V41.8H11.3V46.5039H12.3ZM11.8 42.3H13.1042V41.3H11.8V42.3ZM12.6042 41.8V46.3949H13.6042V41.8H12.6042ZM12.6042 46.3949C12.6042 46.7703 12.6871 47.1234 12.8649 47.4408L13.7374 46.9522C13.6526 46.8009 13.6042 46.6196 13.6042 46.3949H12.6042ZM12.8667 47.4441C13.0469 47.7601 13.3017 48.0089 13.6215 48.1859L14.1057 47.311C13.9427 47.2207 13.8226 47.1016 13.7355 46.9489L12.8667 47.4441ZM13.6248 48.1877C13.953 48.3661 14.3244 48.4453 14.7214 48.4453V47.4453C14.4576 47.4453 14.2571 47.3932 14.1025 47.3092L13.6248 48.1877ZM14.7214 48.4453C15.1185 48.4453 15.4899 48.3661 15.8181 48.1877L15.3404 47.3092C15.1858 47.3932 14.9853 47.4453 14.7214 47.4453V48.4453ZM15.8196 48.1869C16.1425 48.0099 16.3993 47.7599 16.578 47.4408L15.7055 46.9522C15.6217 47.1018 15.5035 47.2198 15.3389 47.31L15.8196 48.1869ZM16.578 47.4408C16.7558 47.1234 16.8386 46.7703 16.8386 46.3949H15.8386C15.8386 46.6196 15.7902 46.8009 15.7055 46.9522L16.578 47.4408ZM16.8386 46.3949V41.8H15.8386V46.3949H16.8386ZM18.5606 49H18.0606V49.5H18.5606V49ZM18.5606 41.8V41.3H18.0606V41.8H18.5606ZM22.6528 42.0883L22.4247 42.5332L22.4259 42.5338L22.6528 42.0883ZM23.5071 42.8969L23.0697 43.1392L23.0717 43.1427L23.5071 42.8969ZM23.5036 45.3051L23.0709 45.0544L23.0704 45.0554L23.5036 45.3051ZM22.6422 46.0891L22.8591 46.5396L22.8614 46.5385L22.6422 46.0891ZM19.32 46.3633H18.82V46.8633H19.32V46.3633ZM19.32 45.2805V44.7805H18.82V45.2805H19.32ZM21.8618 45.1469L22.06 45.6059L22.0644 45.604L21.8618 45.1469ZM22.3188 44.7496L21.885 44.5009L21.884 44.5028L22.3188 44.7496ZM22.3188 43.4488L21.8809 43.6902L21.8823 43.6926L22.3188 43.4488ZM21.8583 43.034L21.6471 43.4872L21.6514 43.4892L21.8583 43.034ZM19.8649 42.8898V42.3898H19.3649V42.8898H19.8649ZM19.8649 49V49.5H20.3649V49H19.8649ZM22.2801 45.7375L22.7189 45.4978L22.5767 45.2375H22.2801V45.7375ZM24.0626 49V49.5H24.9055L24.5013 48.7603L24.0626 49ZM22.6071 49L22.1665 49.2364L22.308 49.5H22.6071V49ZM20.8563 45.7375V45.2375H20.0205L20.4157 45.9739L20.8563 45.7375ZM19.0606 49V41.8H18.0606V49H19.0606ZM18.5606 42.3H21.2606V41.3H18.5606V42.3ZM21.2606 42.3C21.7583 42.3 22.1389 42.3867 22.4247 42.5332L22.8808 41.6433C22.4167 41.4054 21.8692 41.3 21.2606 41.3V42.3ZM22.4259 42.5338C22.7207 42.684 22.9292 42.8855 23.0697 43.1392L23.9444 42.6546C23.7006 42.2145 23.3395 41.8769 22.8797 41.6427L22.4259 42.5338ZM23.0717 43.1427C23.2175 43.4009 23.2989 43.7155 23.2989 44.1027H24.2989C24.2989 43.5712 24.1857 43.0819 23.9425 42.651L23.0717 43.1427ZM23.2989 44.1027C23.2989 44.492 23.2165 44.8032 23.0709 45.0544L23.9362 45.5557C24.1844 45.1273 24.2989 44.6369 24.2989 44.1027H23.2989ZM23.0704 45.0554C22.9299 45.2991 22.721 45.4944 22.4231 45.6397L22.8614 46.5385C23.3228 46.3135 23.6882 45.986 23.9368 45.5548L23.0704 45.0554ZM22.4253 45.6386C22.131 45.7803 21.7435 45.8633 21.243 45.8633V46.8633C21.8487 46.8633 22.3941 46.7635 22.8591 46.5396L22.4253 45.6386ZM21.243 45.8633H19.32V46.8633H21.243V45.8633ZM19.82 46.3633V45.2805H18.82V46.3633H19.82ZM19.32 45.7805H21.0672V44.7805H19.32V45.7805ZM21.0672 45.7805C21.4312 45.7805 21.77 45.7311 22.06 45.6059L21.6636 44.6878C21.5411 44.7407 21.3501 44.7805 21.0672 44.7805V45.7805ZM22.0644 45.604C22.3551 45.4751 22.5955 45.275 22.7536 44.9964L21.884 44.5028C21.8452 44.571 21.7809 44.6358 21.6592 44.6898L22.0644 45.604ZM22.7526 44.9983C22.9067 44.7295 22.97 44.4231 22.97 44.1027H21.97C21.97 44.2934 21.9325 44.4182 21.885 44.5009L22.7526 44.9983ZM22.97 44.1027C22.97 43.7818 22.9065 43.4757 22.7553 43.205L21.8823 43.6926C21.9327 43.7829 21.97 43.9127 21.97 44.1027H22.97ZM22.7567 43.2074C22.5994 42.9222 22.3606 42.7131 22.0652 42.5788L21.6514 43.4892C21.7685 43.5424 21.8366 43.6098 21.8809 43.6902L22.7567 43.2074ZM22.0694 42.5808C21.7749 42.4435 21.4297 42.3898 21.0602 42.3898V43.3898C21.3422 43.3898 21.5291 43.4323 21.6471 43.4872L22.0694 42.5808ZM21.0602 42.3898H19.8649V43.3898H21.0602V42.3898ZM19.3649 42.8898V49H20.3649V42.8898H19.3649ZM19.8649 48.5H18.5606V49.5H19.8649V48.5ZM21.8413 45.9772L23.6238 49.2397L24.5013 48.7603L22.7189 45.4978L21.8413 45.9772ZM24.0626 48.5H22.6071V49.5H24.0626V48.5ZM23.0477 48.7636L21.2969 45.5011L20.4157 45.9739L22.1665 49.2364L23.0477 48.7636ZM20.8563 46.2375H22.2801V45.2375H20.8563V46.2375ZM24.4995 49H23.9995V49.5H24.4995V49ZM24.4995 41.8V41.3H23.9995V41.8H24.4995ZM28.5917 42.1094L28.3507 42.5475L28.3518 42.5481L28.5917 42.1094ZM29.4459 42.9602L29.0046 43.1952L29.0065 43.1986L29.4459 42.9602ZM29.4459 45.4141L29.8854 45.6525L29.8854 45.6525L29.4459 45.4141ZM28.5846 46.2613L28.8212 46.7018L28.8233 46.7007L28.5846 46.2613ZM25.3924 46.5672H24.8924V47.0672H25.3924V46.5672ZM25.3924 45.4949V44.9949H24.8924V45.4949H25.3924ZM27.8006 45.3262L28.0401 45.7651L28.0401 45.7651L27.8006 45.3262ZM28.2577 44.8621L27.8126 44.6343L27.8105 44.6385L28.2577 44.8621ZM28.2577 43.5086L27.8115 43.7344L27.8137 43.7386L28.2577 43.5086ZM27.7971 43.0551L27.5615 43.4962L27.5675 43.4993L27.7971 43.0551ZM25.8038 42.8898V42.3898H25.3038V42.8898H25.8038ZM25.8038 49V49.5H26.3038V49H25.8038ZM24.9995 49V41.8H23.9995V49H24.9995ZM24.4995 42.3H27.1995V41.3H24.4995V42.3ZM27.1995 42.3C27.6923 42.3 28.068 42.392 28.3507 42.5475L28.8326 41.6713C28.3653 41.4142 27.8129 41.3 27.1995 41.3V42.3ZM28.3518 42.5481C28.6482 42.7101 28.8607 42.9249 29.0046 43.1952L29.8873 42.7252C29.6468 42.2735 29.2898 41.9211 28.8315 41.6706L28.3518 42.5481ZM29.0065 43.1986C29.1567 43.4755 29.2377 43.7997 29.2377 44.1836H30.2377C30.2377 43.6535 30.1243 43.162 29.8854 42.7217L29.0065 43.1986ZM29.2377 44.1836C29.2377 44.5732 29.1563 44.8994 29.0065 45.1756L29.8854 45.6525C30.1247 45.2115 30.2377 44.7175 30.2377 44.1836H29.2377ZM29.0065 45.1756C28.8608 45.4441 28.646 45.659 28.346 45.822L28.8233 46.7007C29.2827 46.4512 29.642 46.1012 29.8854 45.6525L29.0065 45.1756ZM28.3481 45.8208C28.0591 45.976 27.678 46.0672 27.1819 46.0672V47.0672C27.7967 47.0672 28.3508 46.9545 28.8212 46.7018L28.3481 45.8208ZM27.1819 46.0672H25.3924V47.0672H27.1819V46.0672ZM25.8924 46.5672V45.4949H24.8924V46.5672H25.8924ZM25.3924 45.9949H27.0061V44.9949H25.3924V45.9949ZM27.0061 45.9949C27.3832 45.9949 27.7379 45.9299 28.0401 45.7651L27.5612 44.8872C27.4509 44.9474 27.2759 44.9949 27.0061 44.9949V45.9949ZM28.0401 45.7651C28.3296 45.6072 28.5576 45.3802 28.7049 45.0857L27.8105 44.6385C27.7608 44.7378 27.6842 44.8201 27.5612 44.8872L28.0401 45.7651ZM28.7027 45.0899C28.8448 44.8123 28.9088 44.506 28.9088 44.1836H27.9088C27.9088 44.3722 27.872 44.5181 27.8126 44.6343L28.7027 45.0899ZM28.9088 44.1836C28.9088 43.8614 28.8449 43.5551 28.7016 43.2786L27.8137 43.7386C27.872 43.8511 27.9088 43.9949 27.9088 44.1836H28.9088ZM28.7038 43.2828C28.5542 42.9872 28.321 42.763 28.0267 42.6109L27.5675 43.4993C27.6904 43.5628 27.7643 43.6409 27.8115 43.7343L28.7038 43.2828ZM28.0327 42.614C27.7311 42.453 27.3765 42.3898 26.9991 42.3898V43.3898C27.2732 43.3898 27.4507 43.4369 27.5616 43.4961L28.0327 42.614ZM26.9991 42.3898H25.8038V43.3898H26.9991V42.3898ZM25.3038 42.8898V49H26.3038V42.8898H25.3038ZM25.8038 48.5H24.4995V49.5H25.8038V48.5ZM30.3707 49H29.8707V49.5H30.3707V49ZM30.3707 41.8V41.3H29.8707V41.8H30.3707ZM31.675 41.8H32.175V41.3H31.675V41.8ZM31.675 47.9066H31.175V48.4066H31.675V47.9066ZM34.846 47.9066H35.346V47.4066H34.846V47.9066ZM34.846 49V49.5H35.346V49H34.846ZM30.8707 49V41.8H29.8707V49H30.8707ZM30.3707 42.3H31.675V41.3H30.3707V42.3ZM31.175 41.8V47.9066H32.175V41.8H31.175ZM31.675 48.4066H34.846V47.4066H31.675V48.4066ZM34.346 47.9066V49H35.346V47.9066H34.346ZM34.846 48.5H30.3707V49.5H34.846V48.5ZM35.4781 49H34.9781V49.5H35.4781V49ZM35.4781 41.8V41.3H34.9781V41.8H35.4781ZM40.1609 41.8H40.6609V41.3H40.1609V41.8ZM40.1609 42.8934V43.3934H40.6609V42.8934H40.1609ZM36.7824 42.8934V42.3934H36.2824V42.8934H36.7824ZM36.7824 44.848H36.2824V45.348H36.7824V44.848ZM39.9183 44.848H40.4183V44.348H39.9183V44.848ZM39.9183 45.9414V46.4414H40.4183V45.9414H39.9183ZM36.7824 45.9414V45.4414H36.2824V45.9414H36.7824ZM36.7824 47.9066H36.2824V48.4066H36.7824V47.9066ZM40.189 47.9066H40.689V47.4066H40.189V47.9066ZM40.189 49V49.5H40.689V49H40.189ZM35.9781 49V41.8H34.9781V49H35.9781ZM35.4781 42.3H40.1609V41.3H35.4781V42.3ZM39.6609 41.8V42.8934H40.6609V41.8H39.6609ZM40.1609 42.3934H36.7824V43.3934H40.1609V42.3934ZM36.2824 42.8934V44.848H37.2824V42.8934H36.2824ZM36.7824 45.348H39.9183V44.348H36.7824V45.348ZM39.4183 44.848V45.9414H40.4183V44.848H39.4183ZM39.9183 45.4414H36.7824V46.4414H39.9183V45.4414ZM36.2824 45.9414V47.9066H37.2824V45.9414H36.2824ZM36.7824 48.4066H40.189V47.4066H36.7824V48.4066ZM39.689 47.9066V49H40.689V47.9066H39.689ZM40.189 48.5H35.4781V49.5H40.189V48.5Z" fill="white"/>
<path d="M10 100.278H4.18182V98.0959C4.18182 97.6489 4.25947 97.2739 4.41477 96.9709C4.57008 96.666 4.78788 96.4358 5.06818 96.2805C5.34659 96.1233 5.6714 96.0447 6.04261 96.0447C6.41572 96.0447 6.73958 96.1243 7.0142 96.2834C7.28693 96.4406 7.49811 96.6726 7.64773 96.9794C7.79545 97.2862 7.86932 97.6631 7.86932 98.1101V99.6641H6.99432V98.2521C6.99432 97.9908 6.95833 97.7768 6.88636 97.6101C6.8125 97.4434 6.70549 97.3203 6.56534 97.2408C6.4233 97.1593 6.24905 97.1186 6.04261 97.1186C5.83617 97.1186 5.66004 97.1593 5.5142 97.2408C5.36648 97.3222 5.25473 97.4463 5.17898 97.6129C5.10133 97.7796 5.0625 97.9946 5.0625 98.2578V99.2237H10V100.278ZM7.36364 97.272L10 95.8317V97.0078L7.36364 98.4226V97.272ZM10.0852 93.7507C10.0852 94.1882 9.99432 94.5661 9.8125 94.8842C9.62879 95.2005 9.36932 95.4439 9.03409 95.6143C8.69697 95.7848 8.30019 95.87 7.84375 95.87C7.39489 95.87 7.00095 95.7848 6.66193 95.6143C6.32102 95.442 6.05587 95.2015 5.86648 94.8928C5.67519 94.584 5.57955 94.2214 5.57955 93.8047C5.57955 93.5357 5.62311 93.282 5.71023 93.0433C5.79545 92.8028 5.92803 92.5907 6.10795 92.407C6.28788 92.2214 6.51705 92.0755 6.79545 91.9695C7.07197 91.8634 7.40152 91.8104 7.78409 91.8104H8.09943V95.3871H7.40625V92.7962C7.20928 92.7981 7.03409 92.8407 6.88068 92.924C6.72538 93.0073 6.60322 93.1238 6.5142 93.2734C6.42519 93.4212 6.38068 93.5935 6.38068 93.7905C6.38068 94.0007 6.43182 94.1854 6.53409 94.3445C6.63447 94.5036 6.76705 94.6276 6.93182 94.7166C7.0947 94.8037 7.27367 94.8482 7.46875 94.8501H8.07386C8.32765 94.8501 8.54545 94.8037 8.72727 94.7109C8.9072 94.6181 9.04545 94.4884 9.14205 94.3217C9.23674 94.1551 9.28409 93.96 9.28409 93.7365C9.28409 93.5869 9.26326 93.4515 9.22159 93.3303C9.17803 93.209 9.11458 93.1039 9.03125 93.0149C8.94792 92.9259 8.8447 92.8587 8.72159 92.8132L8.82955 91.853C9.08333 91.9136 9.30492 92.0291 9.49432 92.1996C9.68182 92.3681 9.82765 92.584 9.93182 92.8473C10.0341 93.1106 10.0852 93.4117 10.0852 93.7507ZM10.0767 89.821C10.0767 90.1638 9.98864 90.4706 9.8125 90.7415C9.63636 91.0123 9.38068 91.2263 9.04545 91.3835C8.71023 91.5407 8.30303 91.6193 7.82386 91.6193C7.33902 91.6193 6.92992 91.5398 6.59659 91.3807C6.26136 91.2197 6.00852 91.0028 5.83807 90.7301C5.66572 90.4574 5.57955 90.1534 5.57955 89.8182C5.57955 89.5625 5.62311 89.3523 5.71023 89.1875C5.79545 89.0227 5.89867 88.892 6.01989 88.7955C6.1392 88.6989 6.25189 88.6241 6.35795 88.571V88.5284H4.18182V87.4972H10V88.5085H9.3125V88.571C9.41856 88.6241 9.53125 88.7008 9.65057 88.8011C9.76799 88.9015 9.86837 89.0341 9.9517 89.1989C10.035 89.3636 10.0767 89.571 10.0767 89.821ZM9.23295 89.5341C9.23295 89.3163 9.17424 89.1307 9.05682 88.9773C8.9375 88.8239 8.77178 88.7074 8.55966 88.6278C8.34754 88.5483 8.10038 88.5085 7.81818 88.5085C7.53598 88.5085 7.29072 88.5483 7.08239 88.6278C6.87405 88.7055 6.71212 88.821 6.59659 88.9744C6.48106 89.1259 6.4233 89.3125 6.4233 89.5341C6.4233 89.7633 6.48295 89.9545 6.60227 90.108C6.72159 90.2614 6.88636 90.3769 7.09659 90.4545C7.30682 90.5322 7.54735 90.571 7.81818 90.571C8.09091 90.571 8.33428 90.5322 8.5483 90.4545C8.76042 90.375 8.92803 90.2585 9.05114 90.1051C9.17235 89.9498 9.23295 89.7595 9.23295 89.5341ZM10 85.3714H4.18182L4.18182 83.1442C4.18182 82.7237 4.24811 82.3743 4.38068 82.0959C4.51136 81.8156 4.69034 81.6063 4.91761 81.468C5.14489 81.3279 5.40246 81.2578 5.69034 81.2578C5.92708 81.2578 6.12973 81.3033 6.2983 81.3942C6.46496 81.4851 6.60038 81.6072 6.70455 81.7607C6.80871 81.9141 6.88352 82.0855 6.92898 82.2749H6.9858C6.99716 82.0684 7.06061 81.8705 7.17614 81.6811C7.28977 81.4898 7.45076 81.3336 7.65909 81.2124C7.86742 81.0911 8.11932 81.0305 8.41477 81.0305C8.71591 81.0305 8.98674 81.1035 9.22727 81.2493C9.46591 81.3951 9.65436 81.6148 9.79261 81.9084C9.93087 82.2019 10 82.5713 10 83.0163V85.3714ZM9.11932 84.3175V83.1839C9.11932 82.8014 9.0464 82.5258 8.90057 82.3572C8.75284 82.1868 8.56345 82.1016 8.33239 82.1016C8.16004 82.1016 8.00473 82.1442 7.86648 82.2294C7.72633 82.3146 7.61648 82.4358 7.53693 82.593C7.45549 82.7502 7.41477 82.9377 7.41477 83.1555V84.3175H9.11932ZM6.65625 84.3175V83.2749C6.65625 83.093 6.62311 82.9292 6.55682 82.7834C6.48864 82.6375 6.39299 82.523 6.26989 82.4396C6.14489 82.3544 5.99716 82.3118 5.8267 82.3118C5.60133 82.3118 5.41572 82.3913 5.26989 82.5504C5.12405 82.7076 5.05114 82.9415 5.05114 83.2521V84.3175H6.65625ZM8.16477 77.8778H5.63636V76.8494H10V77.8466H9.22443V77.892C9.46875 77.9905 9.66856 78.1525 9.82386 78.3778C9.97917 78.6013 10.0568 78.8769 10.0568 79.2045C10.0568 79.4905 9.99337 79.7434 9.86648 79.9631C9.73769 80.1809 9.55114 80.3513 9.30682 80.4744C9.06061 80.5975 8.76326 80.6591 8.41477 80.6591H5.63636V79.6307H8.25568C8.5322 79.6307 8.75189 79.5549 8.91477 79.4034C9.07765 79.2519 9.15909 79.053 9.15909 78.8068C9.15909 78.6553 9.12216 78.5085 9.0483 78.3665C8.97443 78.2244 8.86458 78.108 8.71875 78.017C8.57102 77.9242 8.38636 77.8778 8.16477 77.8778ZM4.18182 75.2635H10V76.2919H4.18182V75.2635ZM4.18182 73.6776H10V74.706H4.18182V73.6776Z" fill="white"/>
</svg>
