<svg width="46" height="110" viewBox="0 0 46 110" fill="none" xmlns="http://www.w3.org/2000/svg">
<rect x="1" y="3" width="44" height="104" rx="4" fill="#ABABAB"/>
<path d="M8 2.5C8 1.67157 8.67157 1 9.5 1H36.5C37.3284 1 38 1.67157 38 2.5V4H8V2.5Z" fill="#ABABAB"/>
<path d="M41 107C41 108.105 40.1046 109 39 109L7 109C5.89543 109 5 108.105 5 107V107L41 107V107Z" fill="#ABABAB"/>
<rect x="3" y="5" width="40" height="100" rx="3" fill="#43423D"/>
<path d="M43 102C43 103.657 41.6569 105 40 105H6C4.34315 105 3 103.657 3 102L3 32H43L43 102Z" fill="#293CE2"/>
<path d="M3 8C3 6.34315 4.34315 5 6 5H40C41.6569 5 43 6.34315 43 8V78H3V8Z" fill="url(#paint0_linear_174_1470)"/>
<g filter="url(#filter0_f_174_1470)">
<mask id="path-7-inside-1_174_1470" fill="white">
<path d="M32.6137 52.6137C34.7242 54.7242 34.7431 58.2318 32.1252 59.6653C30.4388 60.5887 28.6129 61.2558 26.7067 61.6349C23.0211 62.368 19.2008 61.9918 15.729 60.5537C12.2572 59.1156 9.28982 56.6804 7.20208 53.5558C5.11433 50.4313 4 46.7578 4 43C4 39.2422 5.11433 35.5687 7.20208 32.4442C9.28982 29.3196 12.2572 26.8844 15.729 25.4463C19.2008 24.0082 23.0211 23.632 26.7067 24.3651C28.6129 24.7442 30.4388 25.4113 32.1252 26.3347C34.7431 27.7682 34.7242 31.2758 32.6137 33.3863L32.2044 33.7956C30.32 35.68 27.2118 35.4856 24.5981 34.9657V34.9657C23.0091 34.6496 21.362 34.8118 19.8652 35.4318C18.3683 36.0518 17.0889 37.1018 16.1888 38.4489C15.2887 39.796 14.8083 41.3798 14.8083 43C14.8083 44.6202 15.2887 46.204 16.1888 47.5511C17.0889 48.8982 18.3683 49.9482 19.8652 50.5682C21.362 51.1882 23.0091 51.3504 24.5981 51.0343V51.0343C27.2118 50.5144 30.32 50.32 32.2044 52.2044L32.6137 52.6137Z"/>
</mask>
<path d="M32.6137 52.6137C34.7242 54.7242 34.7431 58.2318 32.1252 59.6653C30.4388 60.5887 28.6129 61.2558 26.7067 61.6349C23.0211 62.368 19.2008 61.9918 15.729 60.5537C12.2572 59.1156 9.28982 56.6804 7.20208 53.5558C5.11433 50.4313 4 46.7578 4 43C4 39.2422 5.11433 35.5687 7.20208 32.4442C9.28982 29.3196 12.2572 26.8844 15.729 25.4463C19.2008 24.0082 23.0211 23.632 26.7067 24.3651C28.6129 24.7442 30.4388 25.4113 32.1252 26.3347C34.7431 27.7682 34.7242 31.2758 32.6137 33.3863L32.2044 33.7956C30.32 35.68 27.2118 35.4856 24.5981 34.9657V34.9657C23.0091 34.6496 21.362 34.8118 19.8652 35.4318C18.3683 36.0518 17.0889 37.1018 16.1888 38.4489C15.2887 39.796 14.8083 41.3798 14.8083 43C14.8083 44.6202 15.2887 46.204 16.1888 47.5511C17.0889 48.8982 18.3683 49.9482 19.8652 50.5682C21.362 51.1882 23.0091 51.3504 24.5981 51.0343V51.0343C27.2118 50.5144 30.32 50.32 32.2044 52.2044L32.6137 52.6137Z" fill="#43423D"/>
<path d="M32.6137 52.6137C34.7242 54.7242 34.7431 58.2318 32.1252 59.6653C30.4388 60.5887 28.6129 61.2558 26.7067 61.6349C23.0211 62.368 19.2008 61.9918 15.729 60.5537C12.2572 59.1156 9.28982 56.6804 7.20208 53.5558C5.11433 50.4313 4 46.7578 4 43C4 39.2422 5.11433 35.5687 7.20208 32.4442C9.28982 29.3196 12.2572 26.8844 15.729 25.4463C19.2008 24.0082 23.0211 23.632 26.7067 24.3651C28.6129 24.7442 30.4388 25.4113 32.1252 26.3347C34.7431 27.7682 34.7242 31.2758 32.6137 33.3863L32.2044 33.7956C30.32 35.68 27.2118 35.4856 24.5981 34.9657V34.9657C23.0091 34.6496 21.362 34.8118 19.8652 35.4318C18.3683 36.0518 17.0889 37.1018 16.1888 38.4489C15.2887 39.796 14.8083 41.3798 14.8083 43C14.8083 44.6202 15.2887 46.204 16.1888 47.5511C17.0889 48.8982 18.3683 49.9482 19.8652 50.5682C21.362 51.1882 23.0091 51.3504 24.5981 51.0343V51.0343C27.2118 50.5144 30.32 50.32 32.2044 52.2044L32.6137 52.6137Z" stroke="#DB00FF" stroke-opacity="0.88" stroke-width="11" mask="url(#path-7-inside-1_174_1470)"/>
</g>
<g filter="url(#filter1_f_174_1470)">
<mask id="path-8-inside-2_174_1470" fill="white">
<path d="M29.1724 30.886C30.5274 28.2267 33.8575 27.1248 36.0298 29.1716C37.249 30.3204 38.3166 31.6307 39.2002 33.0725C41.031 36.0602 42 39.496 42 43C42 46.504 41.031 49.9398 39.2002 52.9275C38.3166 54.3693 37.249 55.6796 36.0298 56.8284C33.8575 58.8752 30.5274 57.7733 29.1724 55.114L28.7635 54.3116C27.6344 52.0954 28.685 49.4009 29.9846 47.2802V47.2802C30.7739 45.992 31.1917 44.5107 31.1917 43C31.1917 41.4893 30.774 40.008 29.9846 38.7198V38.7198C28.685 36.5991 27.6344 33.9046 28.7635 31.6884L29.1724 30.886Z"/>
</mask>
<path d="M29.1724 30.886C30.5274 28.2267 33.8575 27.1248 36.0298 29.1716C37.249 30.3204 38.3166 31.6307 39.2002 33.0725C41.031 36.0602 42 39.496 42 43C42 46.504 41.031 49.9398 39.2002 52.9275C38.3166 54.3693 37.249 55.6796 36.0298 56.8284C33.8575 58.8752 30.5274 57.7733 29.1724 55.114L28.7635 54.3116C27.6344 52.0954 28.685 49.4009 29.9846 47.2802V47.2802C30.7739 45.992 31.1917 44.5107 31.1917 43C31.1917 41.4893 30.774 40.008 29.9846 38.7198V38.7198C28.685 36.5991 27.6344 33.9046 28.7635 31.6884L29.1724 30.886Z" fill="#43423D"/>
<path d="M29.1724 30.886C30.5274 28.2267 33.8575 27.1248 36.0298 29.1716C37.249 30.3204 38.3166 31.6307 39.2002 33.0725C41.031 36.0602 42 39.496 42 43C42 46.504 41.031 49.9398 39.2002 52.9275C38.3166 54.3693 37.249 55.6796 36.0298 56.8284C33.8575 58.8752 30.5274 57.7733 29.1724 55.114L28.7635 54.3116C27.6344 52.0954 28.685 49.4009 29.9846 47.2802V47.2802C30.7739 45.992 31.1917 44.5107 31.1917 43C31.1917 41.4893 30.774 40.008 29.9846 38.7198V38.7198C28.685 36.5991 27.6344 33.9046 28.7635 31.6884L29.1724 30.886Z" stroke="#206BFF" stroke-opacity="0.7" stroke-width="11" mask="url(#path-8-inside-2_174_1470)"/>
</g>
<mask id="path-9-inside-3_174_1470" fill="white">
<path d="M35.8305 49.5375C37.602 50.4401 38.3315 52.6384 37.0949 54.1953C35.3522 56.3893 33.1104 58.1597 30.5359 59.3466C26.8641 61.0393 22.7294 61.4465 18.798 60.5027C14.8666 59.5588 11.3674 57.3188 8.8643 54.1437C6.36121 50.9685 5 47.0431 5 43C5 38.9569 6.36121 35.0315 8.8643 31.8563C11.3674 28.6812 14.8666 26.4412 18.798 25.4973C22.7294 24.5535 26.8641 24.9607 30.5359 26.6534C33.1104 27.8403 35.3522 29.6107 37.0949 31.8047C38.3315 33.3616 37.602 35.5599 35.8305 36.4625V36.4625C34.059 37.3652 31.9215 36.5969 30.4889 35.2182C29.6258 34.3876 28.6246 33.7006 27.5215 33.1921C25.3185 32.1764 22.8376 31.9321 20.4788 32.4984C18.1199 33.0647 16.0204 34.4087 14.5186 36.3138C13.0167 38.2189 12.2 40.5741 12.2 43C12.2 45.4259 13.0167 47.7811 14.5186 49.6862C16.0204 51.5913 18.1199 52.9353 20.4788 53.5016C22.8376 54.0679 25.3185 53.8236 27.5215 52.8079C28.6246 52.2994 29.6258 51.6124 30.4889 50.7818C31.9215 49.4031 34.059 48.6348 35.8305 49.5375V49.5375Z"/>
</mask>
<path d="M35.8305 49.5375C37.602 50.4401 38.3315 52.6384 37.0949 54.1953C35.3522 56.3893 33.1104 58.1597 30.5359 59.3466C26.8641 61.0393 22.7294 61.4465 18.798 60.5027C14.8666 59.5588 11.3674 57.3188 8.8643 54.1437C6.36121 50.9685 5 47.0431 5 43C5 38.9569 6.36121 35.0315 8.8643 31.8563C11.3674 28.6812 14.8666 26.4412 18.798 25.4973C22.7294 24.5535 26.8641 24.9607 30.5359 26.6534C33.1104 27.8403 35.3522 29.6107 37.0949 31.8047C38.3315 33.3616 37.602 35.5599 35.8305 36.4625V36.4625C34.059 37.3652 31.9215 36.5969 30.4889 35.2182C29.6258 34.3876 28.6246 33.7006 27.5215 33.1921C25.3185 32.1764 22.8376 31.9321 20.4788 32.4984C18.1199 33.0647 16.0204 34.4087 14.5186 36.3138C13.0167 38.2189 12.2 40.5741 12.2 43C12.2 45.4259 13.0167 47.7811 14.5186 49.6862C16.0204 51.5913 18.1199 52.9353 20.4788 53.5016C22.8376 54.0679 25.3185 53.8236 27.5215 52.8079C28.6246 52.2994 29.6258 51.6124 30.4889 50.7818C31.9215 49.4031 34.059 48.6348 35.8305 49.5375V49.5375Z" fill="#43423D" stroke="white" stroke-width="11" mask="url(#path-9-inside-3_174_1470)"/>
<rect x="27" y="40" width="14" height="5.5" rx="2.75" fill="white"/>
<path d="M10.6263 82V81.1797L14.355 75.8317H10.605V74.7273H15.9885V75.5476L12.2634 80.8956H16.0099V82H10.6263ZM22.9415 78.3636C22.9415 79.1473 22.7947 79.8184 22.5012 80.3771C22.21 80.9335 21.8122 81.3596 21.308 81.6555C20.8061 81.9515 20.2367 82.0994 19.5999 82.0994C18.963 82.0994 18.3925 81.9515 17.8882 81.6555C17.3863 81.3572 16.9886 80.9299 16.695 80.3736C16.4039 79.8149 16.2583 79.1449 16.2583 78.3636C16.2583 77.58 16.4039 76.91 16.695 76.3537C16.9886 75.795 17.3863 75.3677 17.8882 75.0717C18.3925 74.7758 18.963 74.6278 19.5999 74.6278C20.2367 74.6278 20.8061 74.7758 21.308 75.0717C21.8122 75.3677 22.21 75.795 22.5012 76.3537C22.7947 76.91 22.9415 77.58 22.9415 78.3636ZM21.6169 78.3636C21.6169 77.812 21.5305 77.3468 21.3577 76.968C21.1872 76.5869 20.9505 76.2992 20.6475 76.1051C20.3444 75.9086 19.9952 75.8104 19.5999 75.8104C19.2045 75.8104 18.8553 75.9086 18.5523 76.1051C18.2493 76.2992 18.0113 76.5869 17.8385 76.968C17.6681 77.3468 17.5828 77.812 17.5828 78.3636C17.5828 78.9152 17.6681 79.3816 17.8385 79.7628C18.0113 80.1416 18.2493 80.4292 18.5523 80.6257C18.8553 80.8198 19.2045 80.9169 19.5999 80.9169C19.9952 80.9169 20.3444 80.8198 20.6475 80.6257C20.9505 80.4292 21.1872 80.1416 21.3577 79.7628C21.5305 79.3816 21.6169 78.9152 21.6169 78.3636ZM29.6636 74.7273V82H28.4917L25.0649 77.0462H25.0045V82H23.6871V74.7273H24.866L28.2893 79.6847H28.3532V74.7273H29.6636ZM30.5992 82V74.7273H35.3293V75.8317H31.9166V77.8061H35.0843V78.9105H31.9166V80.8956H35.3577V82H30.5992Z" fill="white"/>
<defs>
<filter id="filter0_f_174_1470" x="0" y="20" width="38.147" height="46" filterUnits="userSpaceOnUse" color-interpolation-filters="sRGB">
<feFlood flood-opacity="0" result="BackgroundImageFix"/>
<feBlend mode="normal" in="SourceGraphic" in2="BackgroundImageFix" result="shape"/>
<feGaussianBlur stdDeviation="2" result="effect1_foregroundBlur_174_1470"/>
</filter>
<filter id="filter1_f_174_1470" x="24.2837" y="24.111" width="21.7163" height="37.7781" filterUnits="userSpaceOnUse" color-interpolation-filters="sRGB">
<feFlood flood-opacity="0" result="BackgroundImageFix"/>
<feBlend mode="normal" in="SourceGraphic" in2="BackgroundImageFix" result="shape"/>
<feGaussianBlur stdDeviation="2" result="effect1_foregroundBlur_174_1470"/>
</filter>
<linearGradient id="paint0_linear_174_1470" x1="23" y1="5" x2="23" y2="78" gradientUnits="userSpaceOnUse">
<stop stop-color="#57C1FD"/>
<stop offset="0.854167" stop-color="#62C6FE" stop-opacity="0.640625"/>
<stop offset="1" stop-color="#76CEFF" stop-opacity="0"/>
</linearGradient>
</defs>
</svg>
