<svg width="46" height="110" viewBox="0 0 46 110" fill="none" xmlns="http://www.w3.org/2000/svg">
<rect x="1" y="3" width="44" height="104" rx="4" fill="#ABABAB"/>
<path d="M8 2.5C8 1.67157 8.67157 1 9.5 1H36.5C37.3284 1 38 1.67157 38 2.5V4H8V2.5Z" fill="#ABABAB"/>
<path d="M41 107C41 108.105 40.1046 109 39 109L7 109C5.89543 109 5 108.105 5 107V107L41 107V107Z" fill="#ABABAB"/>
<rect x="3" y="5" width="40" height="100" rx="3" fill="#FF234B"/>
<path d="M10 5H40C41.6568 5 43 6.34315 43 8V9C43 9 32.5 11.5 27 15.5C24.7667 17.1242 20 23.5 17.5 24.5C16.4122 24.9351 14.5 25.25 13 24.5C11.1428 23.5714 9.74832 17.5596 9.03416 13.7218C8.63945 11.6007 8.79264 9.427 9.36031 7.34551L10 5Z" fill="white"/>
<path d="M10.6273 50V39.8182H14.4455C15.2277 39.8182 15.8839 39.9541 16.4142 40.2259C16.9479 40.4976 17.3506 40.8788 17.6223 41.3693C17.8974 41.8565 18.035 42.425 18.035 43.0746C18.035 43.7275 17.8958 44.2943 17.6174 44.7749C17.3423 45.2521 16.9363 45.6217 16.3993 45.8835C15.8624 46.142 15.2028 46.2713 14.4206 46.2713H11.7012V44.7401H14.1721C14.6294 44.7401 15.004 44.6771 15.2956 44.5511C15.5873 44.4219 15.8027 44.2346 15.9419 43.9893C16.0845 43.7408 16.1557 43.4358 16.1557 43.0746C16.1557 42.7133 16.0845 42.4051 15.9419 42.1499C15.7994 41.8913 15.5823 41.6958 15.2907 41.5632C14.999 41.4273 14.6228 41.3594 14.1621 41.3594H12.4718V50H10.6273ZM15.8873 45.3864L18.4078 50H16.3496L13.8738 45.3864H15.8873ZM19.2328 50V39.8182H25.8549V41.3643H21.0772V44.1286H25.5119V45.6747H21.0772V48.4538H25.8947V50H19.2328ZM30.687 50H27.2367V39.8182H30.7566C31.7675 39.8182 32.6358 40.022 33.3617 40.4297C34.0909 40.834 34.651 41.4157 35.0421 42.1747C35.4332 42.9337 35.6287 43.8419 35.6287 44.8991C35.6287 45.9598 35.4315 46.8712 35.0371 47.6335C34.646 48.3958 34.0809 48.9808 33.3418 49.3885C32.606 49.7962 31.7211 50 30.687 50ZM29.0811 48.4041H30.5975C31.3068 48.4041 31.8984 48.2749 32.3723 48.0163C32.8463 47.7545 33.2026 47.3651 33.4412 46.848C33.6799 46.3277 33.7992 45.678 33.7992 44.8991C33.7992 44.1203 33.6799 43.474 33.4412 42.9602C33.2026 42.4432 32.8496 42.0571 32.3823 41.8018C31.9183 41.5433 31.3416 41.4141 30.6522 41.4141H29.0811V48.4041Z" fill="#FF234B"/>
<path d="M10.6273 50H10.1273V50.5H10.6273V50ZM10.6273 39.8182V39.3182H10.1273V39.8182H10.6273ZM16.4142 40.2259L16.1862 40.6708L16.1873 40.6714L16.4142 40.2259ZM17.6223 41.3693L17.185 41.6116L17.1869 41.6152L17.6223 41.3693ZM17.6174 44.7749L17.1847 44.5242L17.1842 44.5252L17.6174 44.7749ZM16.3993 45.8835L16.6162 46.334L16.6185 46.3329L16.3993 45.8835ZM11.7012 46.2713H11.2012V46.7713H11.7012V46.2713ZM11.7012 44.7401V44.2401H11.2012V44.7401H11.7012ZM15.2956 44.5511L15.4939 45.0102L15.4982 45.0083L15.2956 44.5511ZM15.9419 43.9893L15.5082 43.7407L15.5071 43.7425L15.9419 43.9893ZM15.9419 42.1499L15.5041 42.3913L15.5054 42.3936L15.9419 42.1499ZM15.2907 41.5632L15.0795 42.0165L15.0838 42.0184L15.2907 41.5632ZM12.4718 41.3594V40.8594H11.9718V41.3594H12.4718ZM12.4718 50V50.5H12.9718V50H12.4718ZM15.8873 45.3864L16.326 45.1466L16.1838 44.8864H15.8873V45.3864ZM18.4078 50V50.5H19.2508L18.8466 49.7603L18.4078 50ZM16.3496 50L15.909 50.2364L16.0505 50.5H16.3496V50ZM13.8738 45.3864V44.8864H13.038L13.4332 45.6228L13.8738 45.3864ZM11.1273 50V39.8182H10.1273V50H11.1273ZM10.6273 40.3182H14.4455V39.3182H10.6273V40.3182ZM14.4455 40.3182C15.1723 40.3182 15.745 40.4447 16.1862 40.6708L16.6423 39.7809C16.0229 39.4634 15.2831 39.3182 14.4455 39.3182V40.3182ZM16.1873 40.6714C16.6384 40.9012 16.9649 41.2143 17.185 41.6116L18.0597 41.127C17.7363 40.5432 17.2573 40.0941 16.6412 39.7803L16.1873 40.6714ZM17.1869 41.6152C17.4133 42.016 17.535 42.4971 17.535 43.0746H18.535C18.535 42.3528 18.3816 41.697 18.0577 41.1235L17.1869 41.6152ZM17.535 43.0746C17.535 43.6551 17.4118 44.1322 17.1847 44.5242L18.05 45.0255C18.3797 44.4563 18.535 43.8 18.535 43.0746H17.535ZM17.1842 44.5252C16.9631 44.9087 16.6354 45.2121 16.1802 45.4341L16.6185 46.3329C17.2372 46.0312 17.7214 45.5956 18.0506 45.0245L17.1842 44.5252ZM16.1824 45.433C15.7309 45.6504 15.1502 45.7713 14.4206 45.7713V46.7713C15.2554 46.7713 15.9939 46.6337 16.6162 46.334L16.1824 45.433ZM14.4206 45.7713H11.7012V46.7713H14.4206V45.7713ZM12.2012 46.2713V44.7401H11.2012V46.2713H12.2012ZM11.7012 45.2401H14.1721V44.2401H11.7012V45.2401ZM14.1721 45.2401C14.67 45.2401 15.1184 45.1723 15.4939 45.0102L15.0974 44.0921C14.8895 44.1819 14.5889 44.2401 14.1721 44.2401V45.2401ZM15.4982 45.0083C15.8744 44.8415 16.1779 44.5866 16.3768 44.2361L15.5071 43.7425C15.4276 43.8826 15.3002 44.0022 15.093 44.094L15.4982 45.0083ZM16.3757 44.238C16.5716 43.8964 16.6557 43.5007 16.6557 43.0746H15.6557C15.6557 43.371 15.5974 43.5851 15.5082 43.7407L16.3757 44.238ZM16.6557 43.0746C16.6557 42.6479 16.5713 42.2514 16.3785 41.9061L15.5054 42.3936C15.5976 42.5587 15.6557 42.7787 15.6557 43.0746H16.6557ZM16.3798 41.9085C16.1808 41.5475 15.8784 41.2811 15.4976 41.108L15.0838 42.0184C15.2863 42.1104 15.418 42.2352 15.5041 42.3912L16.3798 41.9085ZM15.5018 41.11C15.1219 40.933 14.6665 40.8594 14.1621 40.8594V41.8594C14.5791 41.8594 14.8761 41.9217 15.0795 42.0164L15.5018 41.11ZM14.1621 40.8594H12.4718V41.8594H14.1621V40.8594ZM11.9718 41.3594V50H12.9718V41.3594H11.9718ZM12.4718 49.5H10.6273V50.5H12.4718V49.5ZM15.4485 45.6261L17.9691 50.2397L18.8466 49.7603L16.326 45.1466L15.4485 45.6261ZM18.4078 49.5H16.3496V50.5H18.4078V49.5ZM16.7902 49.7636L14.3143 45.1499L13.4332 45.6228L15.909 50.2364L16.7902 49.7636ZM13.8738 45.8864H15.8873V44.8864H13.8738V45.8864ZM19.2328 50H18.7328V50.5H19.2328V50ZM19.2328 39.8182V39.3182H18.7328V39.8182H19.2328ZM25.8549 39.8182H26.3549V39.3182H25.8549V39.8182ZM25.8549 41.3643V41.8643H26.3549V41.3643H25.8549ZM21.0772 41.3643V40.8643H20.5772V41.3643H21.0772ZM21.0772 44.1286H20.5772V44.6286H21.0772V44.1286ZM25.5119 44.1286H26.0119V43.6286H25.5119V44.1286ZM25.5119 45.6747V46.1747H26.0119V45.6747H25.5119ZM21.0772 45.6747V45.1747H20.5772V45.6747H21.0772ZM21.0772 48.4538H20.5772V48.9538H21.0772V48.4538ZM25.8947 48.4538H26.3947V47.9538H25.8947V48.4538ZM25.8947 50V50.5H26.3947V50H25.8947ZM19.7328 50V39.8182H18.7328V50H19.7328ZM19.2328 40.3182H25.8549V39.3182H19.2328V40.3182ZM25.3549 39.8182V41.3643H26.3549V39.8182H25.3549ZM25.8549 40.8643H21.0772V41.8643H25.8549V40.8643ZM20.5772 41.3643V44.1286H21.5772V41.3643H20.5772ZM21.0772 44.6286H25.5119V43.6286H21.0772V44.6286ZM25.0119 44.1286V45.6747H26.0119V44.1286H25.0119ZM25.5119 45.1747H21.0772V46.1747H25.5119V45.1747ZM20.5772 45.6747V48.4538H21.5772V45.6747H20.5772ZM21.0772 48.9538H25.8947V47.9538H21.0772V48.9538ZM25.3947 48.4538V50H26.3947V48.4538H25.3947ZM25.8947 49.5H19.2328V50.5H25.8947V49.5ZM27.2367 50H26.7367V50.5H27.2367V50ZM27.2367 39.8182V39.3182H26.7367V39.8182H27.2367ZM33.3617 40.4297L33.1168 40.8656L33.1192 40.867L33.3617 40.4297ZM35.0421 42.1747L34.5976 42.4037L34.5976 42.4037L35.0421 42.1747ZM35.0371 47.6335L34.593 47.4038L34.5922 47.4053L35.0371 47.6335ZM33.3418 49.3885L33.1003 48.9507L33.0995 48.9511L33.3418 49.3885ZM29.0811 48.4041H28.5811V48.9041H29.0811V48.4041ZM32.3723 48.0163L32.6118 48.4553L32.6141 48.454L32.3723 48.0163ZM33.4412 46.848L33.8952 47.0575L33.8957 47.0564L33.4412 46.848ZM33.4412 42.9602L32.9872 43.1698L32.9878 43.1709L33.4412 42.9602ZM32.3823 41.8018L32.1389 42.2386L32.1426 42.2407L32.3823 41.8018ZM29.0811 41.4141V40.9141H28.5811V41.4141H29.0811ZM30.687 49.5H27.2367V50.5H30.687V49.5ZM27.7367 50V39.8182H26.7367V50H27.7367ZM27.2367 40.3182H30.7566V39.3182H27.2367V40.3182ZM30.7566 40.3182C31.7 40.3182 32.4802 40.5081 33.1168 40.8656L33.6065 39.9937C32.7914 39.5359 31.8349 39.3182 30.7566 39.3182V40.3182ZM33.1192 40.867C33.7598 41.2222 34.2506 41.7303 34.5976 42.4037L35.4865 41.9457C35.0513 41.1011 34.4219 40.4459 33.6042 39.9924L33.1192 40.867ZM34.5976 42.4037C34.9445 43.077 35.1287 43.9029 35.1287 44.8991H36.1287C36.1287 43.7808 35.9218 42.7904 35.4865 41.9457L34.5976 42.4037ZM35.1287 44.8991C35.1287 45.8983 34.943 46.7273 34.593 47.4038L35.4812 47.8633C35.92 47.0152 36.1287 46.0212 36.1287 44.8991H35.1287ZM34.5922 47.4053C34.2458 48.0805 33.7509 48.5918 33.1003 48.9507L33.5833 49.8263C34.4109 49.3698 35.0462 48.7112 35.482 47.8618L34.5922 47.4053ZM33.0995 48.9511C32.453 49.3093 31.6555 49.5 30.687 49.5V50.5C31.7866 50.5 32.759 50.283 33.5841 49.8259L33.0995 48.9511ZM29.0811 48.9041H30.5975V47.9041H29.0811V48.9041ZM30.5975 48.9041C31.365 48.9041 32.0449 48.7645 32.6118 48.4553L32.1329 47.5774C31.7519 47.7852 31.2485 47.9041 30.5975 47.9041V48.9041ZM32.6141 48.454C33.1863 48.1379 33.6144 47.666 33.8952 47.0575L32.9872 46.6385C32.7908 47.0642 32.5063 47.3711 32.1306 47.5787L32.6141 48.454ZM33.8957 47.0564C34.1731 46.4516 34.2992 45.7255 34.2992 44.8991H33.2992C33.2992 45.6306 33.1866 46.2037 32.9867 46.6396L33.8957 47.0564ZM34.2992 44.8991C34.2992 44.0732 34.1732 43.3492 33.8947 42.7496L32.9878 43.1709C33.1865 43.5987 33.2992 44.1673 33.2992 44.8991H34.2992ZM33.8952 42.7507C33.6149 42.1434 33.1902 41.6733 32.6219 41.363L32.1426 42.2407C32.509 42.4408 32.7903 42.743 32.9872 43.1698L33.8952 42.7507ZM32.6256 41.3651C32.0683 41.0545 31.4021 40.9141 30.6522 40.9141V41.9141C31.2811 41.9141 31.7683 42.0321 32.1389 42.2386L32.6256 41.3651ZM30.6522 40.9141H29.0811V41.9141H30.6522V40.9141ZM28.5811 41.4141V48.4041H29.5811V41.4141H28.5811Z" fill="white"/>
<path d="M10 100.278H4.18182V98.0959C4.18182 97.6489 4.25947 97.2739 4.41477 96.9709C4.57008 96.666 4.78788 96.4358 5.06818 96.2805C5.34659 96.1233 5.6714 96.0447 6.04261 96.0447C6.41572 96.0447 6.73958 96.1243 7.0142 96.2834C7.28693 96.4406 7.49811 96.6726 7.64773 96.9794C7.79545 97.2862 7.86932 97.6631 7.86932 98.1101V99.6641H6.99432V98.2521C6.99432 97.9908 6.95833 97.7768 6.88636 97.6101C6.8125 97.4434 6.70549 97.3203 6.56534 97.2408C6.4233 97.1593 6.24905 97.1186 6.04261 97.1186C5.83617 97.1186 5.66004 97.1593 5.5142 97.2408C5.36648 97.3222 5.25473 97.4463 5.17898 97.6129C5.10133 97.7796 5.0625 97.9946 5.0625 98.2578V99.2237H10V100.278ZM7.36364 97.272L10 95.8317V97.0078L7.36364 98.4226V97.272ZM10.0852 93.7507C10.0852 94.1882 9.99432 94.5661 9.8125 94.8842C9.62879 95.2005 9.36932 95.4439 9.03409 95.6143C8.69697 95.7848 8.30019 95.87 7.84375 95.87C7.39489 95.87 7.00095 95.7848 6.66193 95.6143C6.32102 95.442 6.05587 95.2015 5.86648 94.8928C5.67519 94.584 5.57955 94.2214 5.57955 93.8047C5.57955 93.5357 5.62311 93.282 5.71023 93.0433C5.79545 92.8028 5.92803 92.5907 6.10795 92.407C6.28788 92.2214 6.51705 92.0755 6.79545 91.9695C7.07197 91.8634 7.40152 91.8104 7.78409 91.8104H8.09943V95.3871H7.40625V92.7962C7.20928 92.7981 7.03409 92.8407 6.88068 92.924C6.72538 93.0073 6.60322 93.1238 6.5142 93.2734C6.42519 93.4212 6.38068 93.5935 6.38068 93.7905C6.38068 94.0007 6.43182 94.1854 6.53409 94.3445C6.63447 94.5036 6.76705 94.6276 6.93182 94.7166C7.0947 94.8037 7.27367 94.8482 7.46875 94.8501H8.07386C8.32765 94.8501 8.54545 94.8037 8.72727 94.7109C8.9072 94.6181 9.04545 94.4884 9.14205 94.3217C9.23674 94.1551 9.28409 93.96 9.28409 93.7365C9.28409 93.5869 9.26326 93.4515 9.22159 93.3303C9.17803 93.209 9.11458 93.1039 9.03125 93.0149C8.94792 92.9259 8.8447 92.8587 8.72159 92.8132L8.82955 91.853C9.08333 91.9136 9.30492 92.0291 9.49432 92.1996C9.68182 92.3681 9.82765 92.584 9.93182 92.8473C10.0341 93.1106 10.0852 93.4117 10.0852 93.7507ZM10.0767 89.821C10.0767 90.1638 9.98864 90.4706 9.8125 90.7415C9.63636 91.0123 9.38068 91.2263 9.04545 91.3835C8.71023 91.5407 8.30303 91.6193 7.82386 91.6193C7.33902 91.6193 6.92992 91.5398 6.59659 91.3807C6.26136 91.2197 6.00852 91.0028 5.83807 90.7301C5.66572 90.4574 5.57955 90.1534 5.57955 89.8182C5.57955 89.5625 5.62311 89.3523 5.71023 89.1875C5.79545 89.0227 5.89867 88.892 6.01989 88.7955C6.1392 88.6989 6.25189 88.6241 6.35795 88.571V88.5284H4.18182V87.4972H10V88.5085H9.3125V88.571C9.41856 88.6241 9.53125 88.7008 9.65057 88.8011C9.76799 88.9015 9.86837 89.0341 9.9517 89.1989C10.035 89.3636 10.0767 89.571 10.0767 89.821ZM9.23295 89.5341C9.23295 89.3163 9.17424 89.1307 9.05682 88.9773C8.9375 88.8239 8.77178 88.7074 8.55966 88.6278C8.34754 88.5483 8.10038 88.5085 7.81818 88.5085C7.53598 88.5085 7.29072 88.5483 7.08239 88.6278C6.87405 88.7055 6.71212 88.821 6.59659 88.9744C6.48106 89.1259 6.4233 89.3125 6.4233 89.5341C6.4233 89.7633 6.48295 89.9545 6.60227 90.108C6.72159 90.2614 6.88636 90.3769 7.09659 90.4545C7.30682 90.5322 7.54735 90.571 7.81818 90.571C8.09091 90.571 8.33428 90.5322 8.5483 90.4545C8.76042 90.375 8.92803 90.2585 9.05114 90.1051C9.17235 89.9498 9.23295 89.7595 9.23295 89.5341ZM10 85.3714H4.18182L4.18182 83.1442C4.18182 82.7237 4.24811 82.3743 4.38068 82.0959C4.51136 81.8156 4.69034 81.6063 4.91761 81.468C5.14489 81.3279 5.40246 81.2578 5.69034 81.2578C5.92708 81.2578 6.12973 81.3033 6.2983 81.3942C6.46496 81.4851 6.60038 81.6072 6.70455 81.7607C6.80871 81.9141 6.88352 82.0855 6.92898 82.2749H6.9858C6.99716 82.0684 7.06061 81.8705 7.17614 81.6811C7.28977 81.4898 7.45076 81.3336 7.65909 81.2124C7.86742 81.0911 8.11932 81.0305 8.41477 81.0305C8.71591 81.0305 8.98674 81.1035 9.22727 81.2493C9.46591 81.3951 9.65436 81.6148 9.79261 81.9084C9.93087 82.2019 10 82.5713 10 83.0163V85.3714ZM9.11932 84.3175V83.1839C9.11932 82.8014 9.0464 82.5258 8.90057 82.3572C8.75284 82.1868 8.56345 82.1016 8.33239 82.1016C8.16004 82.1016 8.00473 82.1442 7.86648 82.2294C7.72633 82.3146 7.61648 82.4358 7.53693 82.593C7.45549 82.7502 7.41477 82.9377 7.41477 83.1555V84.3175H9.11932ZM6.65625 84.3175V83.2749C6.65625 83.093 6.62311 82.9292 6.55682 82.7834C6.48864 82.6375 6.39299 82.523 6.26989 82.4396C6.14489 82.3544 5.99716 82.3118 5.8267 82.3118C5.60133 82.3118 5.41572 82.3913 5.26989 82.5504C5.12405 82.7076 5.05114 82.9415 5.05114 83.2521V84.3175H6.65625ZM8.16477 77.8778H5.63636V76.8494H10V77.8466H9.22443V77.892C9.46875 77.9905 9.66856 78.1525 9.82386 78.3778C9.97917 78.6013 10.0568 78.8769 10.0568 79.2045C10.0568 79.4905 9.99337 79.7434 9.86648 79.9631C9.73769 80.1809 9.55114 80.3513 9.30682 80.4744C9.06061 80.5975 8.76326 80.6591 8.41477 80.6591H5.63636V79.6307H8.25568C8.5322 79.6307 8.75189 79.5549 8.91477 79.4034C9.07765 79.2519 9.15909 79.053 9.15909 78.8068C9.15909 78.6553 9.12216 78.5085 9.0483 78.3665C8.97443 78.2244 8.86458 78.108 8.71875 78.017C8.57102 77.9242 8.38636 77.8778 8.16477 77.8778ZM4.18182 75.2635H10V76.2919H4.18182V75.2635ZM4.18182 73.6776H10V74.706H4.18182V73.6776Z" fill="white"/>
</svg>
