<svg width="46" height="110" viewBox="0 0 46 110" fill="none" xmlns="http://www.w3.org/2000/svg">
<rect x="1" y="3" width="44" height="104" rx="4" fill="#ABABAB"/>
<path d="M8 2.5C8 1.67157 8.67157 1 9.5 1H36.5C37.3284 1 38 1.67157 38 2.5V4H8V2.5Z" fill="#ABABAB"/>
<path d="M41 107C41 108.105 40.1046 109 39 109L7 109C5.89543 109 5 108.105 5 107V107L41 107V107Z" fill="#ABABAB"/>
<rect x="3" y="5" width="40" height="100" rx="3" fill="white"/>
<path d="M23 88L20 22H26L23 88Z" fill="#C9C9C9"/>
<path d="M32 88L29 22H35L32 88Z" fill="#C9C9C9"/>
<path d="M14 88L11 22H17L14 88Z" fill="#C9C9C9"/>
</svg>
