<svg width="275" height="437" viewBox="0 0 275 437" fill="none" xmlns="http://www.w3.org/2000/svg">
<path d="M55.7643 26.1639H86.6121V169.138C86.6121 249.483 83.1293 333.537 49.545 396.166C44.072 385.041 31.6333 368.56 23.9214 360.731C52.5303 307.167 55.7643 237.123 55.7643 168.726V26.1639ZM132.138 43.8812H162.488V352.491H132.138V43.8812ZM208.013 25.7519H239.607V391.633H208.013V25.7519Z" fill="#87E963"/>
<path d="M55.7642 26.1638V0.412029H40.2159V26.1638H55.7642ZM86.612 26.1638H102.16V0.412029H86.612V26.1638ZM49.5448 396.166L37.4912 412.432L49.0347 435.897L61.17 413.266L49.5448 396.166ZM23.9212 360.731L12.2756 343.669L0 366.651L15.7963 382.687L23.9212 360.731ZM132.137 43.8811V18.1292H116.589V43.8811H132.137ZM162.488 43.8811H178.036V18.1292H162.488V43.8811ZM162.488 352.49V378.242H178.036V352.49H162.488ZM132.137 352.49H116.589V378.242H132.137V352.49ZM208.013 25.7518V0H192.465V25.7518H208.013ZM239.607 25.7518H255.156V0H239.607V25.7518ZM239.607 391.633V417.385H255.156V391.633H239.607ZM208.013 391.633H192.465V417.385H208.013V391.633ZM55.7642 26.1638H86.612V0.412029H55.7642V26.1638ZM86.612 26.1638V169.138H102.16V26.1638H86.612ZM86.612 169.138C86.612 249.779 78.8321 341.55 49.5448 396.166L61.17 413.266C99.0514 342.625 102.16 249.187 102.16 169.138H86.612ZM49.5448 396.166C42.6068 382.063 32.5513 369.492 23.9212 360.731L15.7963 382.687C22.5901 389.583 33.4833 404.285 37.4912 412.432L49.5448 396.166ZM23.9212 360.731C56.7509 299.265 55.7642 237.138 55.7642 168.726H40.2159C40.2159 237.107 36.6638 298.007 12.2756 343.669L23.9212 360.731ZM55.7642 168.726V26.1638H40.2159V168.726H55.7642ZM132.137 43.8811H162.488V18.1292H132.137V43.8811ZM162.488 43.8811V352.49H178.036V43.8811H162.488ZM162.488 352.49H132.137V378.242H162.488V352.49ZM132.137 352.49V43.8811H116.589V352.49H132.137ZM208.013 25.7518H239.607V0H208.013V25.7518ZM239.607 25.7518V391.633H255.156V25.7518H239.607ZM239.607 391.633H208.013V417.385H239.607V391.633ZM208.013 391.633V25.7518H192.465V391.633H208.013Z" fill="#43423D"/>
</svg>
